<svg width="331" height="127" fill="none" xmlns="http://www.w3.org/2000/svg"><path d="M6.644 8.41c1.223-.18 2.14-.126 2.752.162.072.144.18.307.324.487.18-.036.45-.036.809 0-.072 0-.054-.018.054-.054.108-.072.198-.108.27-.108.216-.037.594-.018 1.133.054.576.072.99.108 1.241.108.432-.108.702-.162.81-.162 1.151.108 4.263.162 9.336.162-.144 0-.036-.054.323-.162 1.44-.145 2.573-.09 3.4.162.108.18.27.378.486.594.252.18.701.306 1.349.379.683.072 1.151.18 1.403.324.288.396.72.829 1.295 1.297.216.072.468.036.756-.108s.467-.216.54-.216l1.726 1.783v.325c.18-.036.396-.036.648 0l.162.162v.756c.072.325.503.757 1.295 1.298-.036.18-.144.396-.324.648-.288.144-.774.36-1.457.649v.81c.036.037.414.307 1.133.811-.36.433-.54.757-.54.973 0 .144.073.253.217.325-.54.36-.828.576-.864.648-.072.433-.162.865-.27 1.297l-.324.325c-.108.612-.108 1.459 0 2.54l-1.079.486c-.324.289-.486.991-.486 2.108v1.135l-.323.162a5.747 5.747 0 0 0-.054.811c0 .252-.108.378-.324.378-.18 0-.432.037-.756.109-.143.072-.305.306-.485.702-.144.397-.324.613-.54.649-.216 0-.522.036-.917.108-.252.288-.522.612-.81.973-.288.072-.773.234-1.457.486-.288-.108-.827-.108-1.619 0a5.02 5.02 0 0 1-.485.649c-.216.036-.45 0-.702-.108-.252-.144-.45-.216-.594-.216-.287.18-.665.396-1.133.648-.324.072-.81.054-1.457-.054-.827-.072-1.349-.108-1.565-.108-.396 0-.72.054-.971.162-.108.18-.27.397-.486.649.468.937.522 1.675.162 2.216-.144.072-.306.18-.486.324.036.144.036.306 0 .486-.216.109-.431.27-.647.487 0 .036.054.09.162.162-.252 1.153-.36 1.802-.324 1.946.144.036.306.09.485.162.072.072.108.18.108.324 0 .145.018.252.054.325-.18.252-.45.522-.81.81-.179-.036-.449-.036-.809 0 0-.036-.053.18-.161.649.036 0 .09.108.162.324.287-.036.773-.09 1.456-.162.252.433.522 1.081.81 1.946-.108.18-.162.559-.162 1.135.144.072.306.18.486.324v.325c.36.18.9.378 1.619.594h1.133l.324.324h.323v-.324l.648-.324c.18-.072.486-.018.918.162.072.18.323.378.755.594.18-.036.414-.017.702.055v.324c.287.829.287 1.477 0 1.946a2.85 2.85 0 0 0-.486.324.72.72 0 0 1-.162.432.363.363 0 0 1-.324.162 1.02 1.02 0 0 0-.324.054c-.108.18-.323.397-.647.649-.432-.036-1.061-.036-1.889 0l-.324.324c-1.079.289-2.104.343-3.076.163a11.851 11.851 0 0 0-.81-.487c-.827-.18-1.474-.288-1.942-.324-.252 0-.557.09-.917.27-.36.144-.594.216-.702.216-.467-.072-1.151-.126-2.05-.162l-.162.324c-.72-.072-1.89-.072-3.508 0-1.583.036-2.788-.018-3.616-.162l-.647-.324c-.396.036-.936-.072-1.62-.324l-.161-.649c-.108-.468-.162-.793-.162-.973.072-.324.288-.576.648-.757.395-.18.773-.36 1.133-.54.108-.18.378-.396.81-.649.539.036 1.348-.017 2.428-.162a15.885 15.885 0 0 1 1.78-.919h2.105c.18-.432.396-.973.648-1.621V43.11l-.324-.163c-.036-.18 0-.396.108-.648s.18-.414.216-.487c-.072-.54-.126-1.297-.162-2.27 0-.036.018-.108.054-.216a.96.96 0 0 0 .108-.432l-.324-.487c-.144-1.08-.144-1.945 0-2.594l.324-.432c-.108-.253-.162-.685-.162-1.297.144-.18.306-.559.486-1.136 0-.18-.055-.594-.162-1.243-.108-.684-.162-1.08-.162-1.189.108-.54.162-1.405.162-2.594a3.45 3.45 0 0 1-.486-.81 4.99 4.99 0 0 1-.162-1.947l.324-.756c-.108-.613-.162-1.532-.162-2.757.108-.54.162-.865.162-.973a5.512 5.512 0 0 1-.648-.648.726.726 0 0 1 .162-.595c.18-.18.288-.306.324-.378 0-.216-.09-.613-.27-1.19-.144-.612-.216-.972-.216-1.08-.036-.505.018-.937.162-1.297l.324-.163c0-.108-.108-.54-.324-1.297-.18.108-.45.162-.81.162a3.215 3.215 0 0 0-.485-.594c-.396 0-.99-.054-1.78-.162l-.163-.325-1.295-.486v-.162a2.588 2.588 0 0 0-.81-.108c-.79 0-1.816.198-3.075.594l-.81-.324.486-1.46.324-.162c.036-.036-.018-.306-.162-.81.396-.18.935-.343 1.619-.487.288 0 .773.108 1.457.325.54-.973 1.133-1.514 1.78-1.622zm14.678 4.216c-.252.36-.63.883-1.133 1.567-.108.036-.27.036-.486 0a1.89 1.89 0 0 1-.324-.486h-.81v.324c-.18.072-.395.18-.647.324.216.36.432.901.648 1.622.108 0 .27.054.485.162h-.485a2.83 2.83 0 0 1-.324.487c-.036.036-.36.09-.971.162.611.072 1.42.288 2.428.648 0 .18.054.397.162.649l-.162.486c-.252.072-.522.235-.81.487.037.324.037.81 0 1.46l-.323.323c.072.108.018.217-.162.325.396.324.593.576.593.756 0 .072-.036.145-.108.217-.215.432-.54.973-.97 1.621-.037 0 .017.216.161.649.036-.036.09.054.162.27v.486c0 .036-.27.253-.81.649.396.18.882.504 1.457.973-.035.18-.035.396 0 .648.108.397.378.721.81.973.252.144.54.216.864.216.36 0 .845-.108 1.456-.324.612-.252 1.008-.378 1.188-.378.036 0 .306.108.81.324.251.036.539-.018.863-.162.36-.18.611-.288.755-.324.432.108 1.025.108 1.781 0v-.325l1.619-2.107c.396.035.99-.018 1.78-.163.253-.108.379-.432.379-.973 0-.576.035-.936.107-1.08.252-.073.576-.235.972-.487l-.162-.648c.072 0 .126-.037.162-.109a.846.846 0 0 1 .162-.216l-.162-.649-.972-.81-.162-.162c0-.325-.053-.811-.161-1.46-.252-.216-.576-.54-.972-.973-.036-.252-.144-.576-.324-.972-.287-.073-.665-.235-1.133-.487a3.837 3.837 0 0 0-.162-.486c-.251-.036-.63-.144-1.133-.325-.216-.288-.594-.666-1.133-1.135-.18.036-.45.036-.81 0l-.162-.324c-.215.036-.54.036-.97 0l-.325-.27h-.81c-.035-.036-.197-.306-.485-.81-.252-.037-.665-.091-1.241-.163zm32.884 5.135h2.158c.36.18.81.396 1.35.648.323 0 .827.072 1.51.216.252.18.576.397.972.649.503 0 1.241.162 2.212.486.18.145.378.469.594.973.216.469.396.757.54.865.395.216.953.559 1.672 1.027.648.577 1.206 1.351 1.674 2.324.107.577.341 1.423.701 2.54.144.109.306.27.486.487-.108.36-.162.919-.162 1.675 0 .037.09.253.27.649.18.396.251.739.215 1.027h-.161c-.037.396-.144.955-.324 1.675l-.324.163c-.108.324-.234.666-.378 1.027-.108.324-.288.504-.54.54-.251 0-.63.036-1.133.108a20.73 20.73 0 0 0-.809.487c-.432.288-.828.432-1.187.432-.18 0-.342-.018-.486-.054a5.354 5.354 0 0 0-.648-.865c-.18.036-.413.036-.701 0-.756.613-1.35.919-1.781.919-.324 0-.684-.072-1.08-.216a25.875 25.875 0 0 1-.485-.54c-.36.143-.863.252-1.51.324-.037 0-.235-.054-.595-.163-.36-.144-.665-.198-.917-.162l-.162.325c-.396.036-.953.108-1.673.216v.162a4.991 4.991 0 0 1-1.673-.162.593.593 0 0 1-.108-.216c-.035-.108-.108-.163-.215-.163-.18.036-.396.18-.648.433-.252.252-.432.396-.54.432-.144.036-.36 0-.647-.108-.288-.144-.45-.216-.486-.216-.971-.144-2.428.072-4.371.649 0 1.297.216 2.306.648 3.026l.54.325c.035.18-.145.63-.54 1.35.107.073.647.74 1.618 2 .756 1.01 1.278 1.514 1.566 1.514.287 0 .683.054 1.186.162l.864 1.027a1.097 1.097 0 0 0 0 .486c.216.109.594.127 1.133.055.612-.073 1.008-.09 1.187-.054.217.035.594.18 1.134.432.54.252 1.007.378 1.403.378.252 0 .522-.054.81-.162.143-.18.36-.396.647-.648.324-.036.773-.145 1.349-.325v-.54c.18 0 .414-.054.702-.163 0-.143.053-.306.161-.486.432-.18 1.044-.576 1.835-1.189.216-.433.666-.99 1.35-1.675.143.036.36.036.647 0 .252-.072.917-.505 1.997-1.298l.324-.54c.323.036.773.036 1.349 0 0 .072.108.18.323.324-.036.505-.09 1.297-.162 2.378a51.77 51.77 0 0 0-.647 2.324c.036.18.036.415 0 .703-.648.613-1.44 1.387-2.375 2.324-.18.252-.377.505-.593.757a1.252 1.252 0 0 1-.864.432c-.323 0-.827.054-1.51.163-.288.324-.738.72-1.35 1.188-.432 0-1.15.055-2.158.163-.216 0-.72.144-1.511.432-.648.216-1.206.288-1.673.216-.216-.144-.45-.306-.702-.486-.215-.072-.737-.145-1.565-.216-.575-.072-.99-.234-1.24-.487a6.63 6.63 0 0 0-.217-.648c-.072-.145-.414-.397-1.025-.757-.612-.396-1.061-.649-1.35-.757-.251-.108-.629-.144-1.133-.108-.503.036-.881.018-1.133-.054a8.337 8.337 0 0 0-.701-.865c-.288-.072-.666-.234-1.133-.486a32.443 32.443 0 0 0-1.026-1.838c-.504-.468-1.17-1.189-1.997-2.162-.18-.288-.305-.648-.377-1.08-.144-.65-.27-1.064-.378-1.244a5.32 5.32 0 0 0-.432-.703c.036-.432.036-1.044 0-1.837l-.324-.487c.108-.396.162-1.08.162-2.054-.144-.288-.198-.504-.162-.648.036-.216.27-.469.702-.757.468-.288.738-.54.81-.757.107-.396.053-.738-.163-1.026-.18-.289-.341-.559-.485-.811-.108-.288-.144-.991-.108-2.108.036-1.117.126-1.874.27-2.27a2.82 2.82 0 0 0 .485-.325c0-.18.054-.396.162-.648h.324c.072-.36.234-.865.486-1.513.288-.18.63-.469 1.025-.865.036-.216.144-.54.324-.973.108-.144.72-.703 1.835-1.676.144 0 .377-.054.701-.162.18-.252.45-.54.81-.865.36 0 .917-.108 1.672-.324.432-.324.882-.666 1.35-1.027.252-.036.54 0 .863.108.324.108.594.144.81.108.18-.216.45-.45.81-.702.467-.108 1.15-.162 2.05-.162zm0 3.35c-.072 0-.468.163-1.188.487-.72.288-1.115.469-1.187.54-.108.397-.377.83-.81 1.298-.143.072-.485.018-1.024-.162-.72-.072-1.332.27-1.835 1.027.072.18.18.396.323.648.037-.108.09.18.163.865-.073-.036-.18.018-.325.162-1.654 0-2.608.108-2.86.324.036.18.036.397 0 .649-.18.36-.395.81-.647 1.351 0 .36-.108.919-.324 1.676h-.324c-.072.216-.198.558-.377 1.027h-.324c-.036.18-.054.342-.054.486 0 .685.54 1.027 1.619 1.027.504 0 1.331-.09 2.482-.27 1.151-.216 1.943-.325 2.375-.325.251 0 .45.018.593.055.252.216.54.45.864.702-.108.072-.09.126.054.162h.27v-.324c.071-.072.071-.252 0-.54.323 0 .88-.054 1.672-.163 1.26-.18 3.22-.45 5.882-.81.144-.108.306-.27.486-.487 0-.036-.054-.216-.162-.54.684-.469 1.691-.685 3.022-.649-.108-.9-.234-1.495-.377-1.784-.145-.324-.468-.684-.972-1.08-.18-.037-.414-.145-.701-.325 0-.288-.055-.738-.162-1.351-.18-.252-.396-.576-.648-.973a1.345 1.345 0 0 0 0-.54 1.1 1.1 0 0 1-.486 0 1.976 1.976 0 0 0-.377-.487c-1.188-.756-2.177-1.207-2.968-1.351-.288.036-.684.036-1.187 0-.288-.216-.45-.324-.486-.324zm31.491-3.945c.072 0 .27.108.594.324.324.18.522.27.594.27.54-.144 1.367-.198 2.482-.162.324.325.683.631 1.08.92.215-.18.719-.325 1.51-.433.468.072 1.098.378 1.889.919.072.18.216.378.432.594.072.072.126.09.162.054v-.108c0-.108.053-.144.162-.108v.324c.647.36 1.277.703 1.888 1.027.756.433 1.295.865 1.62 1.297.071.073.395.577.97 1.514-.107.036-.161.126-.161.27 0 .325.143.793.432 1.405.287.577.521.883.701.92a41.9 41.9 0 0 1 1.133.215c.072.072.18.163.324.27l-.162.325h-.593c-.432.108-.648.432-.648.973v1.351c0 .036-.054.162-.162.378-.108.217-.144.397-.108.541 0 .036.054.198.162.486.108.289.144.54.108.757 0 .036-.09.18-.27.433a1.279 1.279 0 0 0-.162.81l.324.27c.216.65.252 1.316.108 2 0 .144-.144.415-.432.811-.252.36-.36.72-.323 1.081.035.108.161.324.377.649.252.324.378.558.378.702 0 .18-.09.343-.27.487h-.755c-.036.144-.054.522-.054 1.135l.054.864c.036.109.377.36 1.025.757.216.216.485.415.809.595.108.036.378.036.81 0 .432-.072.719-.108.863-.108l.162-.325c.324-.072.612-.108.864-.108.899 0 1.637.757 2.212 2.27.18.36.378.865.594 1.514a5.374 5.374 0 0 0-.162.81c-.144.036-.342.18-.594.433-.144.108-.287.27-.432.486v.595c-.287.216-.647.522-1.079.919.18 0 .27.09.27.27 0 .324-.252.846-.755 1.567-1.116-.144-2.033-.036-2.753.325-.179.18-.467.36-.863.54-.36.18-1.061.252-2.104.216-1.08-.036-1.781-.126-2.105-.27-.252-.36-.558-.774-.918-1.243-.252-.252-.72-.505-1.403-.757-.324-.144-.575-.198-.755-.162-.972.144-1.745.396-2.32.757v.324c-.217.18-.469.378-.756.595-.144-.037-.36-.037-.648 0l-.162.324c-.36-.072-.863-.126-1.51-.162a7.155 7.155 0 0 1-.756.432c-.432-.036-1.061-.036-1.889 0-.432.216-1.043.432-1.835.649-.18 0-.413-.054-.701-.162-.288-.108-.468-.162-.54-.162-.396.072-.953.126-1.673.162a17.436 17.436 0 0 0-1.08-.487c-.467.072-1.187-.018-2.158-.27a8.395 8.395 0 0 0-.917-1.405c-.36-.108-.864-.307-1.511-.595-.36-.216-.882-1.045-1.565-2.486-.252-.433-.557-1.045-.917-1.838.036-.324.036-.793 0-1.405-.037-.108-.162-.342-.378-.703-.18-.36-.252-.684-.216-.973.144-.324.288-.738.432-1.243-.108-.252-.162-.72-.162-1.405.072-.18.27-.342.593-.486.36-.18.576-.325.648-.433v-.432c.252-.469.558-1.081.917-1.838 0-.216.055-.54.162-.973.216-.288.99-.739 2.32-1.351v-.162c.253.036.559.036.918 0 .072-.252.18-.559.324-.92h.27c-.864-.215-1.53-.521-1.997-.918-.072-.252-.27-.558-.593-.919l-.702-.27c-.18-.072-.288-.306-.324-.703a.604.604 0 0 0-.054-.27c-.18-.108-.378-.324-.593-.648-.073-.18 0-1.01.215-2.487.252-1.513.45-2.36.594-2.54.18-.18.414-.45.701-.81v-.433c.684-1.01 1.098-1.586 1.242-1.73.144-.144.683-.504 1.619-1.08.935-.577 1.475-.884 1.619-.92.215.145.665.253 1.349.325.323-.289.791-.595 1.403-.92.395.037.953.037 1.673 0 .144-.035.431-.197.863-.485.468-.289.81-.433 1.025-.433zm-.162 5.837-.323.325c-.396-.036-.954-.036-1.673 0-.288.18-.648.378-1.08.594h-.323c0 .397-.108.919-.324 1.568h-.593c-.145.72-.145 1.279 0 1.675.251.36.36.523.323.487-.072-.073-.18-.036-.323.108.071.36.071.63 0 .81a2.323 2.323 0 0 0-.594.595c.036.432.036 1.099 0 2 2.266.18 3.741.18 4.425 0l.162-.325c.647-.396 1.259-.648 1.834-.756.54-.072 1.314-.018 2.321.162.036-.252.144-.667.324-1.243-.18 0 .396.036 1.727.108.755 0 1.259-.09 1.51-.27.145-.108.253-.36.325-.757.108-.396.197-.757.27-1.081a53.784 53.784 0 0 1-1.997-1.081 6.602 6.602 0 0 0-.324-.432c-.18-.036-.486-.144-.918-.325-.143-.252-.45-.558-.917-.918-.575-.073-1.403-.235-2.482-.487-.036 0-.198-.162-.486-.486-.216-.217-.504-.307-.864-.27zm5.505 12.918v.324c-.36.109-1.025.325-1.997.649-.144.108-.342.252-.594.432-.79 0-1.978.054-3.561.163-.648.252-1.511.558-2.59.918-.108-.036-.27-.036-.486 0a1.71 1.71 0 0 1-.27.595c-.36.144-.827.36-1.403.648 0 .253.018.505.054.757 0 .216-.126.379-.377.487-.252-.036-.612-.036-1.08 0l-.162.27h-.432c0 .144.054.36.162.648.288.145.648.343 1.08.595a1.112 1.112 0 0 0 0 .487c.107-.036.251-.036.431 0 .18.072.414.324.702.756.288.433.522.685.702.757h.593c.684.18 1.151.234 1.403.162.144-.144.342-.306.594-.486.935-.18 2.122-.018 3.561.486v.108c0 .036.054.054.162.054v-.162c.756-.397 1.17-.648 1.241-.757-.035-.216 0-.522.108-.918h.324c.144-.253.36-.523.648-.811h1.187c.36-.937.99-1.694 1.889-2.27-.144-.072-.108-.18.108-.325 0-.036-.09-.198-.27-.486h.27c.036-.108.09-.306.161-.595-.251-.18-.557-.486-.917-.918a6.729 6.729 0 0 0-.324-1.027c-.144-.397-.45-.577-.917-.54zm32.939-17.35.917.27c.396.037.846 0 1.35-.108a3.997 3.997 0 0 1 1.457-.054c.467.289 1.151.613 2.05.973.684.072 1.673.325 2.968.757.072.144.162.306.27.486.18 0 .396.055.648.163 0 .144.054.306.162.486.143 0 .395.036.755.108.072.144.18.306.324.487h.647l1.08.81v.433c.432.432.953 1.117 1.564 2.054 0 .396.108.973.324 1.73.36.251.882.612 1.565 1.08-.287.901-.287 2 0 3.297-.791.144-1.205.343-1.241.595-.18.756-.288 1.17-.324 1.243-.179.288-.935.739-2.266 1.351-1.295.613-2.159.9-2.59.865-.18-.036-.72-.288-1.619-.757-.9-.504-1.403-.829-1.511-.973-.036-.036-.144-.342-.324-.919-.144-.144-.396-.234-.756-.27-.467 0-.773-.036-.917-.108a9.902 9.902 0 0 0-.648-.432c.072-.36.234-.883.486-1.568.036-.108.234-.252.594-.432.395-.685.503-1.423.323-2.216a8.03 8.03 0 0 1-.755-.919 3.833 3.833 0 0 0-.162-.486c-.504-.037-1.241-.145-2.213-.325-.108 0-.485-.18-1.133-.54-.539-.252-.989-.325-1.349-.216v.486c-.36.036-.935.072-1.727.108-.072.36-.288.793-.647 1.297-.18 0-.486.09-.918.27v.487l-.917 1.081h-.324c.144.108.198.27.162.486-.288.217-.432.397-.432.54 0 .253-.072.487-.216.704-.108 0-.251.054-.431.162-.036.252-.144.612-.324 1.08-.036.037-.198.09-.486.163.288.036.432.108.432.216 0 .18-.198.324-.594.432.037.217.037.577 0 1.081l-.323.163c0 .468.054 1.35.161 2.648-.144.036-.395.144-.755.324.18.072.234.216.162.433-.036.252-.144.414-.324.486.036.144.09.415.162.81h.486v.271h.108c0 .685.108 1.477.323 2.378.18.145.504.234.972.27.468 0 .737.019.809.055.108.036.45.648 1.025 1.837.216-.432.378-.684.486-.757l1.08-.162c.359.757.881 1.586 1.564 2.487.288.108.864.162 1.727.162.864 0 1.439-.054 1.727-.162.252-.289.666-.595 1.241-.92.432.109 1.062.217 1.889.325.468-.036.81-.234 1.025-.594.252-.397.468-.775.648-1.136.108-.035.216-.09.324-.162V42.3h.485c.144-.216.306-.468.486-.757-.072-.288-.072-.81 0-1.567.072 0 .162-.108.27-.325.36.037.882-.017 1.565-.162.108-.144.27-.288.486-.432h.647c.108-.18.252-.342.432-.486.575-.108 1.187 0 1.835.324.647.324 1.079.684 1.295 1.08 0 .145.054.343.162.595.395.289.809.757 1.241 1.406.072.324 0 .756-.216 1.297-.216.54-.396.846-.539.919h-.486c0 .252-.054.612-.162 1.08l-.486.487a13 13 0 0 1-.108 1.405c-1.151.36-2.05.829-2.698 1.406v.324c-.072.216-.432.468-1.079.757-.252.144-.684.198-1.296.162-.611-.036-.953-.036-1.025 0-.036.18-.09.396-.161.648-.36.397-.774.703-1.242.92-.36.035-.935.143-1.727.323-.251.18-.557.379-.917.595-.504.108-1.151.108-1.943 0-.863-.108-1.475-.162-1.835-.162-1.151.072-1.618.126-1.403.162l-.593-.27-1.997.054c-.756.036-1.349-.09-1.781-.379-.108-.216-.306-.486-.593-.81a1.107 1.107 0 0 1-.486 0 5.894 5.894 0 0 0-.486-.433c-.251-.036-.611-.144-1.079-.324-.108-.252-.324-.559-.648-.919h-.431l-1.133-.81a5.759 5.759 0 0 0-.27-.92c-.288-.144-.63-.468-1.026-.972.036-.36 0-.92-.107-1.676a22.67 22.67 0 0 1-.918-1.297c-.072-.36-.18-.775-.324-1.243-.108 0-.252-.054-.432-.162-.035-.36-.144-.919-.323-1.676a8.238 8.238 0 0 1-.81-.973c0-.468-.09-1.189-.27-2.162-.144-.18-.306-.396-.485-.648-.18-.901-.126-1.73.161-2.486l.324-.163a7.34 7.34 0 0 1 0-1.243c.18-.468.378-1.099.594-1.891-.036-.217-.036-.523 0-.92.36-.468.774-1.152 1.241-2.053-.036-.144-.036-.343 0-.595.324-.252.684-.576 1.079-.973.108-.324.324-.792.648-1.405.216-.072.486-.216.809-.432 0-.252.09-.63.27-1.135h.324v-.162c.18-.072.594-.379 1.241-.92.072-.18.18-.396.324-.648.36 0 .882-.09 1.565-.27.252-.288.666-.667 1.241-1.135v-.27c.216-.145.522-.217.918-.217.431-.036.737-.09.917-.162.216-.108.432-.252.647-.432.324 0 .792-.054 1.404-.162a7.579 7.579 0 0 1 1.133-.433zm34.783-.81h2.159c.36.18.809.396 1.349.648.323 0 .827.072 1.511.216.252.18.575.397.971.649.504 0 1.241.162 2.213.486.18.145.377.469.593.973.216.469.396.757.54.865.396.216.953.559 1.673 1.027.647.577 1.205 1.351 1.673 2.324.107.577.341 1.423.701 2.54.144.109.306.27.486.487-.108.36-.162.919-.162 1.675 0 .037.09.253.27.649.18.396.252.739.216 1.027h-.162c-.036.396-.144.955-.324 1.675l-.324.163c-.108.324-.234.666-.377 1.027-.108.324-.288.504-.54.54-.252 0-.63.036-1.134.108a21.15 21.15 0 0 0-.809.487c-.432.288-.827.432-1.187.432-.18 0-.342-.018-.486-.054a5.352 5.352 0 0 0-.647-.865c-.18.036-.414.036-.702 0-.756.613-1.349.919-1.781.919-.324 0-.683-.072-1.079-.216a27.646 27.646 0 0 1-.486-.54c-.359.143-.863.252-1.511.324-.036 0-.234-.054-.593-.163-.36-.144-.666-.198-.918-.162l-.162.325a31.09 31.09 0 0 0-1.673.216v.162a4.984 4.984 0 0 1-1.672-.162.587.587 0 0 1-.108-.216c-.036-.108-.108-.163-.216-.163-.18.036-.396.18-.648.433-.252.252-.431.396-.539.432-.144.036-.36 0-.648-.108-.288-.144-.45-.216-.486-.216-.971-.144-2.428.072-4.371.649 0 1.297.216 2.306.648 3.026l.539.325c.037.18-.143.63-.539 1.35.108.073.647.74 1.619 2 .755 1.01 1.277 1.514 1.565 1.514.287 0 .683.054 1.187.162l.863 1.027a1.106 1.106 0 0 0 0 .486c.216.109.594.127 1.134.055.611-.073 1.007-.09 1.187-.054.216.035.594.18 1.133.432.54.252 1.007.378 1.403.378.252 0 .522-.054.81-.162.143-.18.36-.396.647-.648.324-.036.773-.145 1.349-.325v-.54c.18 0 .414-.054.702-.163 0-.143.054-.306.162-.486.432-.18 1.043-.576 1.835-1.189.215-.433.665-.99 1.349-1.675.143.036.359.036.647 0 .252-.072.918-.505 1.997-1.298l.324-.54c.324.036.773.036 1.349 0 0 .072.108.18.324.324-.036.505-.09 1.297-.162 2.378-.18.577-.396 1.352-.648 2.324.036.18.036.415 0 .703-.648.613-1.439 1.387-2.374 2.324-.18.252-.378.505-.594.757a1.253 1.253 0 0 1-.863.432c-.324 0-.828.054-1.512.163-.287.324-.737.72-1.349 1.188-.431 0-1.151.055-2.158.163-.216 0-.72.144-1.511.432-.648.216-1.205.288-1.673.216-.216-.144-.45-.306-.702-.486-.215-.072-.737-.145-1.565-.216-.575-.072-.989-.234-1.241-.487a6.616 6.616 0 0 0-.216-.648c-.072-.145-.413-.397-1.025-.757-.611-.396-1.061-.649-1.349-.757-.252-.108-.63-.144-1.133-.108-.504.036-.882.018-1.134-.054a8.123 8.123 0 0 0-.701-.865c-.288-.072-.666-.234-1.133-.486a32.517 32.517 0 0 0-1.026-1.838c-.503-.468-1.169-1.189-1.996-2.162-.18-.288-.306-.648-.378-1.08-.144-.65-.27-1.064-.378-1.244a5.326 5.326 0 0 0-.432-.703c.036-.432.036-1.044 0-1.837l-.323-.487c.108-.396.162-1.08.162-2.054-.144-.288-.198-.504-.162-.648.036-.216.27-.469.701-.757.468-.288.738-.54.81-.757.108-.396.054-.738-.162-1.026-.18-.289-.342-.559-.486-.811-.108-.288-.144-.991-.108-2.108.036-1.117.126-1.874.27-2.27.144-.072.306-.18.486-.325 0-.18.054-.396.162-.648h.324c.071-.36.233-.865.485-1.513.288-.18.63-.469 1.025-.865.036-.216.144-.54.324-.973.108-.144.72-.703 1.835-1.676.144 0 .378-.054.701-.162.18-.252.45-.54.81-.865.36 0 .918-.108 1.673-.324.431-.324.881-.666 1.349-1.027.252-.036.54 0 .863.108.324.108.594.144.81.108.18-.216.45-.45.809-.702.468-.108 1.152-.162 2.051-.162zm0 3.35c-.072 0-.468.163-1.187.487-.72.288-1.115.469-1.187.54-.108.397-.378.83-.81 1.298-.144.072-.486.018-1.025-.162-.72-.072-1.331.27-1.835 1.027.072.18.18.396.324.648.036-.108.09.18.162.865-.072-.036-.18.018-.324.162-1.655 0-2.608.108-2.86.324.036.18.036.397 0 .649-.18.36-.396.81-.648 1.351 0 .36-.108.919-.324 1.676h-.323c-.072.216-.198.558-.378 1.027h-.324c-.036.18-.054.342-.054.486 0 .685.54 1.027 1.619 1.027.504 0 1.331-.09 2.483-.27 1.151-.216 1.942-.325 2.374-.325.252 0 .449.018.593.055.252.216.54.45.864.702-.108.072-.09.126.054.162h.27v-.324c.071-.072.071-.252 0-.54.323 0 .881-.054 1.673-.163 1.259-.18 3.219-.45 5.882-.81.143-.108.306-.27.486-.487 0-.036-.054-.216-.163-.54.684-.469 1.692-.685 3.023-.649-.108-.9-.234-1.495-.378-1.784-.144-.324-.468-.684-.972-1.08-.179-.037-.413-.145-.701-.325 0-.288-.054-.738-.162-1.351-.18-.252-.396-.576-.647-.973a1.39 1.39 0 0 0 0-.54 1.1 1.1 0 0 1-.486 0 1.987 1.987 0 0 0-.378-.487c-1.187-.756-2.177-1.207-2.968-1.351-.288.036-.683.036-1.187 0-.288-.216-.45-.324-.486-.324zM203.513 8.303c.432 0 1.061.234 1.889.702.827.433 1.385.667 1.673.703 1.007.108 1.727.108 2.159 0 .143-.216.359-.432.647-.648.216-.037.882-.018 1.997.054 1.151.036 1.817.072 1.997.108.935.216 1.457.522 1.564.918a6.71 6.71 0 0 0-.161.973c.107.036.215.127.323.27h.756c0 .073.108.127.324.163v.919c-.36.036-.936.144-1.727.324-.432.324-1.098.685-1.997 1.08-.719 0-1.799.055-3.238.163l-.485.324c-.54.036-1.368.145-2.483.325v.27c-.108.108-.252.27-.431.486.071.145.125.45.161.92-.107.071-.216.233-.324.486.252.072.504.162.756.27a3.026 3.026 0 0 0 0 .81c-.36.18-.863.541-1.511 1.082.324.72.468 1.243.432 1.567-.144.469-.198.775-.162.919.036.036.359.342.971.919-.036.108-.09.306-.162.594l-.647.324c-.252.577-.252 1.352 0 2.325.216.18.431.432.647.756 0 .18-.107.433-.324.757l-.323.486c.036.253.036.613 0 1.081.216 0 .521.055.917.163.432.252 1.007 1.08 1.727 2.486-.288.18-.755.45-1.403.81v.433c.18.108.396.27.648.486.071.253.161 1.28.269 3.081h-.269v.325l-.972.756c.144.108.306.27.486.487-.036.36.018.919.162 1.675l.324.162c.503.83.701 1.658.593 2.487.036 0 .09-.108.162-.325.288.072.702.126 1.241.163-.036.18-.09.54-.162 1.08-.899.145-1.349.325-1.349.54 0 .145.144.38.432.703.144.037.342.145.594.325.035.252.143.558.323.919h.486c.18.252.432.522.755.81.288-.035.648-.09 1.08-.162l.162-.324c.035 0 .144.054.323.162l.27.162c.144 0 .72-.108 1.727-.324.612 0 1.493-.108 2.644-.324.109-.216.378-.433.81-.649.144 0 .324-.036.539-.108.109-.36.27-.883.486-1.567.36-.036.882-.145 1.565-.325.036-.216.036-.522 0-.918a4.688 4.688 0 0 1-.485-.433v-.324c.035 0 .089-.162.161-.487.36-1.26.522-2.035.486-2.324a18.951 18.951 0 0 1-.324-.81c-.143-.433-.197-.83-.162-1.19l.162-.432c.144-.324.198-.594.162-.81-.18-.18-.396-.38-.648-.595l.648-.325v-.324c.144-.072.288-.18.432-.324-.036-.469-.036-1.135 0-2 .18-.108.396-.252.647-.432.576-.469 1.08-.703 1.511-.703.576 0 1.206.486 1.889 1.46.288.432.432.72.432.864a9.802 9.802 0 0 0-.27.973c-.216.252-.27.36-.162.324.072 0 .18.198.324.595-.036.36-.036.883 0 1.567 0 .036.09.216.27.54.18.325.234.613.162.865-.18.145-.378.343-.594.595-.036.18 0 .378.108.595.108.216.162.342.162.378.036.072 0 .685-.108 1.838.036.072.072.234.108.486l-.27.108c-.18.288-.234.757-.162 1.405.144.36.288.775.432 1.243a6.356 6.356 0 0 0-.108.811c.144.288.288.649.432 1.081v.919a4.065 4.065 0 0 0-.756.433c.036.396-.018.918-.162 1.567l-3.238 1.892c-.395.072-.899.036-1.51-.108-.792-.145-1.224-.217-1.296-.217-.683-.036-1.511.018-2.482.163l-.594.27c-.611.108-1.511.126-2.698.054-1.259-.108-2.177-.126-2.752-.054-.432.18-.989.342-1.673.486-.108 0-.324-.054-.647-.162-.324-.108-.522-.162-.594-.162-1.511.108-3.778.162-6.8.162-.252 0-.863-.054-1.835-.162-.935-.108-1.564-.162-1.888-.162-.288 0-.756.108-1.403.324-.648.18-1.152.27-1.511.27-.216 0-.432-.036-.648-.108l-.324-.324c-.108.036-.251.036-.431 0-.072-.036-.234-.397-.486-1.081-.324-.865-.27-1.748.162-2.648h.324c.072-.145.161-.289.269-.433.216.072.54.126.972.163.072-.145.162-.307.27-.487.287-.18.917-.234 1.888-.162 1.044.072 1.457.126 1.242.162.18-.036.647-.18 1.403-.433l.108-.324c.611-.18 1.205-.36 1.781-.54.719-.253 1.115-.595 1.186-1.027.037-.144-.035-.36-.215-.65a20.933 20.933 0 0 0-.27-.593c0-.109-.054-.415-.162-.92.144-.072.252-.485.324-1.242-.036 0-.144-.433-.324-1.297-.144-.865-.18-1.406-.108-1.622.144-.18.288-.396.432-.649.072-.288.054-.702-.054-1.243l-.27-1.08c-.036-.505.018-1.1.162-1.784.216-.937.324-1.424.324-1.46.036-.432.018-.99-.054-1.675a17.5 17.5 0 0 1-.27-1.46c.072-.612.072-1.53 0-2.756a4.81 4.81 0 0 1-.27-.486c.108-.433.198-.937.27-1.514l-.27-.486c-.036-.325 0-.721.108-1.19.108-.504.162-.774.162-.81.18-1.658.09-3.117-.27-4.378a4.718 4.718 0 0 1-.485-.595 103.98 103.98 0 0 0-.486-1.837c-.144-.036-.396-.09-.756-.162a3.095 3.095 0 0 0-.485-.487 3.22 3.22 0 0 0-1.026-.162c-.288 0-.827.09-1.619.27-.791.18-1.457.252-1.996.216-.324-.036-.99-.252-1.997-.648l-.162-.27c-.252-.072-.558-.235-.917-.487a1.106 1.106 0 0 0 0-.486c0 .072-.036.054-.108-.054a.886.886 0 0 1-.054-.217c-.036-.612.179-1.189.647-1.73.468-.54 1.241-.846 2.321-.918 1.259.144 2.698.252 4.317.324v-.324c.072-.216.378-.432.917-.649.396-.108.99-.126 1.781-.054.792.036 1.385.018 1.781-.054l.162-.324c.18-.072.486-.126.917-.162zm35.276 11.08c.036-.036 1.044 0 3.022.108.36-.036.863-.072 1.511-.108.396.18.9.378 1.511.595.252-.18.702-.343 1.349-.487.396.036.792.27 1.187.703.396.432.612.666.648.702.216.108.486.162.81.162.467.037.809.073 1.025.109.108.144.252.306.432.486.108-.036.251-.036.431 0 .18.108.324.36.432.757a6 6 0 0 0 .378.81c.144.145.485.307 1.025.487.54.144.9.324 1.08.54.179.18.341.559.485 1.135.18.54.324.901.432 1.081.288.253.629.613 1.025 1.081a1.93 1.93 0 0 0-.162.487c.504.468.81.919.918 1.351v.919h.323a.665.665 0 0 0-.161.27c.035.036.144.198.323.487.252 1.765.252 2.972 0 3.62a5.855 5.855 0 0 0-.485.433c-.036.325 0 .72.108 1.19.143.468.215.738.215.81-.107.397-.215.9-.323 1.514.18.252.234.45.162.594-.288.072-.594.324-.918.757-.036.36.09.846.378 1.459.288.613.414 1.099.378 1.46 0 .252-.144.54-.432.864-.36.469-.557.72-.594.757-.108.432-.36 1.045-.755 1.837-.288.145-.702.397-1.241.757-.036.036-.09.198-.162.487h-.27c-.036.108-.09.306-.162.594-.144.036-.342.126-.594.27-.036.145-.09.307-.162.487a7.742 7.742 0 0 0-1.079.27 7.388 7.388 0 0 1-.27.486c-.395-.035-.953-.035-1.672 0-.288.145-.756.343-1.403.595l-.108.325c-.324.035-.684.09-1.08.162-.18.108-.432.252-.755.432h-.756c-3.022.432-4.695.63-5.019.594-.575-.252-1.384-.558-2.428-.918-.252.035-.593.035-1.025 0a4.586 4.586 0 0 0-.594-.595c-.54-.072-1.259-.324-2.158-.757-.18-.288-.432-.648-.756-1.08-.432-.145-.989-.433-1.673-.865-.072-.36-.216-.865-.431-1.514-.504-.828-1.062-2.108-1.674-3.837.108-.36.217-.955.324-1.784-.179-.36-.395-.829-.647-1.405.072-.397.126-.991.162-1.784-.108-.36-.198-.72-.27-1.08.036-.18.072-.325.108-.433a6.098 6.098 0 0 0-.108-.757c.108-.648.144-1.009.108-1.08 0-.145-.126-.38-.378-.703-.252-.325-.378-.65-.378-.973.036-.685.288-1.388.756-2.108l.323-.162c.073-.253.073-.613 0-1.081v-.433c.108-.468.306-1.135.594-2a3.832 3.832 0 0 1 1.673-1.621v-.162h.324c.144-.505.449-1.225.917-2.162.144-.036.396-.126.756-.27.144-.325.431-.74.863-1.244.216 0 .468-.036.756-.108.252-.252.611-.558 1.079-.919.756-.324 1.673-.522 2.752-.594zm5.289 6.648c-.072.36-.234.973-.486 1.838-.072.036-.27.09-.594.162-.287-.036-.809-.144-1.564-.325-.72-.18-1.314-.27-1.781-.27-.288 0-.576.036-.864.108-.359.253-.863.559-1.511.92a1.938 1.938 0 0 0-.647 0v.324c-.252.324-.702.774-1.349 1.35-.252.037-.504.09-.756.163-.108.144-.126.396-.054.757.036.36.054.558.054.594-.18.072-.36.198-.539.379-.145.18-.217.54-.217 1.08v.973c-.143.108-.341.307-.593.595.144.144.396.342.756.594-.576 1.694-.774 2.811-.594 3.351.036.18.251.36.648.541.395.18.629.306.701.378a23.89 23.89 0 0 0 1.079 2.108c.216.144.63.198 1.241.162.612-.072 1.044-.072 1.296 0 .503.397.863.703 1.079.92a.88.88 0 0 0 0 .432c.18.036.485.09.917.162.72.324 1.727.684 3.022 1.08.216-.071.576-.125 1.079-.161l1.188.594c.18-.288.486-.684.917-1.19.432-.18.935-.431 1.511-.756v-.486c.18-.036.27-.162.27-.378 0-.073-.036-.289-.108-.649-.072-.324-.072-.595 0-.81.324-.18.665-.47 1.025-.865v-1.514c.144-.036.306-.144.486-.324 0-.072-.054-.18-.162-.325-.144.037-.342.037-.593 0a.818.818 0 0 1-.594-.54 9.138 9.138 0 0 1-.162-.973c.036 0 .072-.09.108-.27.216 0 .576-.054 1.079-.162.036-.54-.018-1.297-.162-2.27a24.709 24.709 0 0 0-1.025-.757c-.108-.324-.072-.667.108-1.027.216-.36.324-.576.324-.649 0-.072-.09-.414-.27-1.026-.144-.65-.252-1.01-.324-1.081a5.852 5.852 0 0 1-.755-.325c-.072-.252-.234-.558-.486-.919-.324-.036-.864-.18-1.619-.432a3.84 3.84 0 0 0-.162-.486c-.216-.109-.521-.307-.917-.595zm44.242-6.108c.324.109.684.217 1.079.325.072 0 .198-.054.378-.162.216-.144.396-.199.54-.163.036 0 .09.055.162.163.072.108.18.162.323.162l.271-.325c.251-.072.899-.036 1.942.109 1.044.144 1.673.252 1.889.324.467.216.791.54.971.973-.072.18-.072.486 0 .918.072.145.216.27.432.379.396.108.612.18.647.216a7.954 7.954 0 0 0 0 1.838c-.935.252-1.762.504-2.482.756a4.787 4.787 0 0 1-.593.487c-.36-.072-.936-.126-1.727-.162-.54.036-1.457.45-2.753 1.243.037.18.091.486.163.919.035.216.035.378 0 .486v.433c-.144.036-.36.144-.648.324-.036.18-.126.378-.27.594h-.486c-.251.613-.144 1.892.324 3.838l-.162.162-.324.162v.595c-.252 0-.611.054-1.079.162l-.756 1.243c.037.144.091.306.163.486.287.036.593.09.917.163.108.396.162 1.026.162 1.891.036 1.01-.018 1.658-.162 1.946l-1.08 1.243h-.323c.036.144.036.45 0 .92-.18.251-.432.611-.756 1.08.288.577.288 1.441 0 2.594-1.187.073-1.961.18-2.32.325 0 .072-.09.162-.27.27-.216.432-.432 1.009-.648 1.73 0 .36.216.81.648 1.35-.108.109-.216.325-.324.65-1.079-.145-1.942 0-2.59.432a6.732 6.732 0 0 1-.809.594c-.288.216-.684.289-1.188.216a23.58 23.58 0 0 1-.809-.486c-.216 0-.522-.054-.918-.162l-.269-.324c-.324-.289-.684-.685-1.08-1.19-.036-.324-.09-.792-.162-1.405l-.485-.486c.036-.216.036-.523 0-.92-.288-.251-.594-.612-.918-1.08-.215-.793-.107-1.603.324-2.432 0-.18.054-.234.162-.162-.072-.036-.18-.145-.324-.325v-.594c-.216-.397-.468-.955-.755-1.676v-.648c-.396-.325-.918-.83-1.565-1.514-.072-.144-.27-.666-.594-1.567h-.162c.072-.469.072-1.135 0-2-.396-.396-.863-.9-1.403-1.513 0-.289-.036-.703-.108-1.244-.323-.648-.683-1.621-1.079-2.918a1.98 1.98 0 0 1 0-.919c0-.144-.072-.342-.216-.595-.144-.288-.702-.648-1.673-1.08-.971-.469-1.673-.74-2.104-.811-.504.072-1.223.072-2.159 0a1.33 1.33 0 0 1-.756-.649c-.287-.54-.449-.829-.485-.865l-.648-.324c.36-1.585.882-2.558 1.565-2.919h.594c.288-.144.647-.306 1.079-.486.54-.072 1.979-.018 4.317.162a30.482 30.482 0 0 1 2.321-.162c.072.108.216.27.431.486.216 0 .54-.072.972-.216.468-.18.773-.27.917-.27.612-.036 1.511.108 2.698.432 1.188.289 1.979.577 2.375.865.432.288.737.685.917 1.19.252.107.288.161.108.161-.072 0-.144.145-.215.433-.073.288-.145.45-.217.486-.215-.036-.521-.036-.917 0a1.96 1.96 0 0 1-.486.433c-.18 0-.431.054-.755.162-.216.432-.468.9-.756 1.405-.179-.108-.287-.054-.324.162v.27c.217.037.522.09.918.163v.648c-.792-.108-1.565.036-2.321.433.072.288.126.702.163 1.243.179.036.449.144.809.324-.108.649-.162.955-.162.919v.919c.576 0 1.241.108 1.997.324l.27 1.19c.215.323.575.504 1.079.54.539.036.881.144 1.025.324.144.18.324.468.54.865.36-.072.863-.18 1.511-.325.108-.18.27-.378.486-.594.035-.036.233-.09.593-.162.036-.18.036-.45 0-.811-.216-.072-.467-.216-.755-.433.036-.18.036-.432 0-.756 1.187.072 2.05-.036 2.59-.325l.162-.594c-.036 0-.09-.108-.162-.324-.036.036-.072-.072-.108-.325a25.82 25.82 0 0 0 1.079-.594l-.162-.649c-.575.144-.845.216-.809.216-.036 0-.126-.324-.27-.972.18 0 .486-.055.917-.163-.18-.468-.395-.973-.647-1.513-.72-.144-1.637-.396-2.752-.757-.036-.18-.144-.45-.324-.81a8.804 8.804 0 0 1-.756-1.081c.036-.18.09-.325.162-.433.036-1.153-.072-1.982-.323-2.486.287.036.647.036 1.079 0 .036 0 .108-.036.215-.108.109-.108.198-.162.271-.162.035 0 .215.072.539.216.36.144.594.216.702.216l.269-.324c.36-.072.918-.054 1.674.054.791.072 1.366.054 1.726-.054l.324-.27c.288-.036.612.018.971.162.396.144.684.216.864.216.144 0 .27-.054.378-.162.143-.108.323-.235.539-.379zm-9.983 5.405c.18 0 .269.108.269.325a.973.973 0 0 0-.269.27c-.144 0-.234-.108-.27-.324l.27-.27zm-3.076 1.838c.252.252.252.342 0 .27-.072-.108-.072-.198 0-.27zm6.152.162c.539 0 .809.108.809.325-.036.072-.162.108-.378.108-.072 0-.143.036-.215.108-.037.072-.108.09-.216.054-.396-.252-.45-.36-.162-.325.072-.18.126-.27.162-.27zm-5.559 7.189-.161.486.809.325v.27c.036 0 .072-.018.108-.054a.63.63 0 0 0 .162-.108c.036-.072.09-.163.162-.27v-.487c-.18 0-.54-.054-1.08-.162zm2.321 0c-.396.108-.594.432-.594.973 0 .612.396.756 1.188.432a7.68 7.68 0 0 1 .269-.378c.144-.144.324-.27.54-.379l-.648-.432a.946.946 0 0 0-.755-.216zm7.555 11.566c.072 0 .126.036.162.108-.036.036-.09.054-.162.054-.108 0-.162-.018-.162-.054 0-.072.054-.108.162-.108zm-.648 2c.216.18.324.324.324.433 0 .108-.09.234-.27.378-.18.108-.306.198-.378.27-.251-.036-.377-.126-.377-.27 0-.108.234-.378.701-.81zm29.483-30.43h2.158c.36.18.81.397 1.349.649.324 0 .828.072 1.511.216.252.18.576.396.972.649.503 0 1.241.162 2.212.486.18.144.378.469.594.973.216.468.396.757.539.865.396.216.954.558 1.673 1.027.648.576 1.206 1.351 1.673 2.324.108.577.342 1.423.702 2.54.144.108.306.27.486.487-.108.36-.162.919-.162 1.675 0 .036.089.252.269.649.18.396.252.738.217 1.027h-.163c-.036.396-.143.955-.323 1.675l-.324.162c-.108.325-.234.667-.378 1.027-.108.325-.288.505-.54.54a8.79 8.79 0 0 0-1.133.109c-.072.036-.342.198-.809.486-.432.289-.828.433-1.188.433-.18 0-.341-.018-.485-.054a5.366 5.366 0 0 0-.648-.865c-.18.036-.413.036-.701 0-.756.613-1.349.919-1.781.919-.324 0-.683-.072-1.08-.216a35.518 35.518 0 0 1-.485-.54c-.36.143-.864.251-1.511.323-.036 0-.234-.054-.594-.162-.359-.144-.665-.198-.917-.162l-.162.324c-.396.036-.953.108-1.673.217v.162a4.995 4.995 0 0 1-1.673-.162.587.587 0 0 1-.108-.217c-.036-.108-.107-.162-.215-.162-.18.036-.396.18-.648.433-.252.252-.432.396-.54.432-.144.036-.36 0-.647-.108-.288-.144-.45-.216-.486-.216-.971-.144-2.428.072-4.371.648 0 1.297.216 2.306.648 3.027l.539.324c.036.18-.144.63-.539 1.352.107.072.647.738 1.618 2 .756 1.008 1.277 1.513 1.565 1.513.288 0 .684.054 1.188.162l.863 1.027a1.106 1.106 0 0 0 0 .486c.216.108.593.127 1.133.054.612-.072 1.008-.09 1.188-.054.215.036.593.18 1.133.433.539.252 1.007.378 1.403.378.252 0 .522-.054.809-.162.144-.18.36-.396.648-.649.324-.036.774-.144 1.349-.324v-.54c.18 0 .414-.054.702-.163 0-.144.054-.306.161-.486.432-.18 1.044-.576 1.835-1.19.216-.432.666-.99 1.349-1.674.144.035.36.035.648 0 .252-.073.917-.505 1.997-1.298l.323-.54c.324.036.774.036 1.349 0 0 .072.108.18.324.324-.036.504-.09 1.297-.162 2.378-.18.577-.395 1.351-.647 2.324.036.18.036.414 0 .703-.648.612-1.439 1.387-2.375 2.324-.18.252-.378.504-.593.757a1.253 1.253 0 0 1-.864.432c-.324 0-.827.054-1.511.162-.288.324-.737.72-1.349 1.19-.431 0-1.151.053-2.159.162-.215 0-.719.144-1.51.432-.648.216-1.205.288-1.673.216-.216-.144-.45-.306-.702-.486-.216-.073-.737-.145-1.565-.217-.575-.072-.989-.234-1.241-.486a6.616 6.616 0 0 0-.216-.649c-.072-.144-.414-.396-1.025-.756-.612-.396-1.061-.649-1.349-.757-.252-.108-.63-.144-1.134-.108-.503.036-.881.018-1.133-.054a8.253 8.253 0 0 0-.701-.865c-.288-.072-.666-.234-1.134-.487a32.365 32.365 0 0 0-1.025-1.837c-.503-.468-1.169-1.19-1.997-2.162-.18-.289-.305-.649-.378-1.081-.143-.649-.269-1.063-.377-1.243a5.326 5.326 0 0 0-.432-.703c.036-.432.036-1.045 0-1.838l-.324-.486c.108-.396.162-1.08.162-2.054-.144-.288-.198-.504-.162-.648.036-.217.27-.469.702-.757.468-.288.737-.54.809-.757.108-.396.054-.738-.161-1.027-.18-.288-.342-.558-.486-.81-.108-.289-.144-.991-.108-2.108.036-1.117.126-1.874.27-2.27.144-.072.305-.18.485-.325 0-.18.054-.396.162-.648h.324c.072-.36.234-.865.486-1.514.287-.18.629-.468 1.025-.865.036-.216.144-.54.324-.972.108-.145.719-.703 1.835-1.676.144 0 .378-.054.701-.162.18-.252.45-.54.809-.865.36 0 .918-.108 1.674-.324.431-.324.881-.667 1.349-1.027.252-.036.539 0 .863.108.324.108.594.144.809.108.18-.216.45-.45.81-.703.468-.108 1.151-.162 2.051-.162zm0 3.351c-.072 0-.468.163-1.187.487-.72.288-1.116.468-1.188.54-.108.397-.378.83-.809 1.297-.144.073-.486.018-1.026-.162-.719-.072-1.331.27-1.834 1.027.071.18.18.397.323.649.036-.108.091.18.162.865-.071-.036-.18.018-.323.162-1.655 0-2.609.108-2.86.324.035.18.035.396 0 .649-.18.36-.396.81-.648 1.35 0 .361-.108.92-.324 1.677h-.324c-.072.216-.198.558-.378 1.026h-.323c-.036.18-.054.343-.054.487 0 .684.539 1.027 1.619 1.027.503 0 1.331-.09 2.482-.27 1.151-.217 1.943-.325 2.374-.325.252 0 .45.018.594.054.252.216.54.45.863.703-.107.072-.089.126.054.162h.27v-.324c.072-.072.072-.252 0-.54.324 0 .882-.055 1.673-.163 1.259-.18 3.22-.45 5.882-.81.144-.109.306-.27.486-.487 0-.036-.054-.216-.162-.54.684-.469 1.691-.685 3.022-.65-.108-.9-.234-1.495-.378-1.783-.143-.324-.467-.684-.971-1.08-.18-.037-.414-.145-.701-.325 0-.288-.054-.739-.162-1.351a22.65 22.65 0 0 1-.648-.973 1.353 1.353 0 0 0 0-.54 1.104 1.104 0 0 1-.486 0 1.986 1.986 0 0 0-.378-.487c-1.186-.757-2.176-1.207-2.967-1.351-.288.036-.684.036-1.188 0-.288-.216-.449-.325-.485-.325zM78.796 65.379c1.295-.145 2.266.288 2.914 1.297 0 .18.108.396.324.648.468-.072 1.205-.072 2.212 0 .288.289.666.613 1.133.973.18-.036.45-.036.81 0v-.324c.144-.108.414-.324.81-.648l-.162-.487c.323 0 .755-.054 1.295-.162-.108-.072-.018-.234.27-.487a.685.685 0 0 0 .162-.324c.324 0 .755.108 1.295.324l.647 2.379h.162c-.036.324-.036.756 0 1.297.108.036.216.09.324.162.036.216.144.594.324 1.135l-.81.648c-.072-.108-.126 0-.162.325.216.108.432.27.648.486-.036.108-.036.27 0 .487-.216.144-.54.414-.972.81.145.433.468.955.972 1.568v.486l-.648.487c.36.792.522 1.333.486 1.621l-.162.27c-.108.145-.162.27-.162.379.252.18.522.45.81.81-.036.144-.036.36 0 .65-.288.143-.72.395-1.296.756v.324c-.035.108-.233.306-.593.594-.324.253-.558.379-.702.379-.287.036-.557-.054-.81-.27a63.703 63.703 0 0 1-.593-.703c-.431-.072-.917-.27-1.457-.594 0-.289-.054-.721-.161-1.297a8.524 8.524 0 0 1-.81-1.136v-.486c-.252-.144-.522-.415-.81-.81.144-.181.252-.56.324-1.136a43.683 43.683 0 0 1-1.133-1.891c0-.18-.054-.505-.162-.974l-.486-.486a1.099 1.099 0 0 0 0-.486h-.323a9.944 9.944 0 0 0-.432-.649c-.324-.216-1.007-.522-2.05-.919-1.152-.432-1.925-.612-2.321-.54-.324.216-.755.432-1.295.648-.252-.036-.612-.036-1.08 0l-.485.649c-.36.144-.9.414-1.62.81-.323.325-.863.757-1.618 1.298h-.162c0 .252-.054.63-.162 1.135-.108 0-.27.054-.485.162-.109.36-.27.775-.486 1.243h-.756c.108.072.36.126.756.162-.037.252-.09.577-.162.973a5 5 0 0 0-.594.162l-.162 1.784c-.288.36-.557.792-.81 1.297.073.18.127.54.163 1.08a5.676 5.676 0 0 0-.648.974c.072.252.126.684.162 1.297l-.324.487v1.783c0 .072-.072.306-.216.703-.108.36-.144.594-.108.702.18.217.396.487.648.811.072.397.054 1.009-.054 1.838-.072.793-.054 1.37.054 1.73.144.144.306.36.486.648-.072.36-.072.883 0 1.567.288.253.647.577 1.079.973-.072.325-.216.811-.432 1.46.036.072.45.45 1.241 1.135.072.18.072.36 0 .54-.108.253-.161.45-.161.595.18.108.341.27.485.486.144.613.468 1.406.972 2.378.216.18.485.271.809.271.18 0 .486-.036.918-.109.467-.108.863-.162 1.187-.162.288.541.611.973.971 1.298.18-.144.432-.307.756-.487.18-.036.593.018 1.24.162.684.144 1.062.271 1.134.379.072.072.144.216.216.432.216-.036.486-.036.81 0-.037-.252-.144-.739-.324-1.459.143-.108.305-.217.485-.325.252.037.63.037 1.133 0 .073-.036.288-.234.648-.594.396-.397.594-.631.594-.703 0-.468.108-1.099.323-1.892h.324c.36-.144.63-.684.81-1.621-.036-.433.018-1.19.162-2.27l.162-.108c.143-.108.197-.234.162-.379a4.98 4.98 0 0 1-.648-.486c.036-.108.036-.252 0-.432a7.889 7.889 0 0 0-.648-.811c-.504.072-1.007.162-1.51.27-.756.072-1.368.036-1.835-.108-.252-.288-.63-.612-1.134-.973-.18 0-.45-.054-.81-.162 0-.144-.053-.306-.161-.486-.036-.036-.198-.09-.486-.163v-.486c.252-.144.576-.36.972-.649.035-.216.143-.486.323-.81.396-.253 1.043-.379 1.943-.379 1.08.036 1.763 0 2.05-.108.109-.144.216-.306.324-.486.18 0 .45-.054.81-.163.252-.216.63-.468 1.133-.756.252-.036.558.054.918.27l.54.324c.359.073.88 0 1.564-.216s1.223-.288 1.62-.216c.647.252 1.51.505 2.59.757.467-.144 1.223-.252 2.266-.325.18.073.36.253.54.541.18.252.305.396.377.433.396.035.99.143 1.781.324.468.144 1.224.63 2.267 1.459-.072.144-.18.306-.324.486-.18 0-.396.054-.648.163-.144.432-.468.973-.971 1.621-.432 0-1.133.054-2.105.162-.503.108-1.349.27-2.536.487l.162.432-.81.486a1.11 1.11 0 0 1 0 .487c-.18.072-.395.18-.647.324-.072.18-.126.469-.162.865-.036.432.018.685.162.757h.324l.485.162c-.18.144-.27.306-.27.486 0 .144.108.343.324.595.252.252.396.432.432.54.072.397 0 .757-.216 1.081-.144.18-.288.343-.432.487.036-.18.09.198.162 1.135-.108.396-.162 1.045-.162 1.946l.486.486c-.036.18-.036.45 0 .811-.324.144-.755.36-1.295.648l-.162.487c.216.108.324.252.324.432 0 .288-.09.433-.27.433-.036-.036-.054-.073-.054-.108-.144.252-.36.522-.647.81h-.324c.036.145.036.307 0 .487-.036.072-.198.306-.486.702-.252.361-.414.559-.486.595a2.033 2.033 0 0 1-.81.162c-.287 0-.917-.27-1.888-.811v-.324c-.252-.108-.81-.162-1.673-.162s-1.439.054-1.727.162c-.251.324-.72.702-1.403 1.135-.396.108-.935.162-1.619.162-.611 0-1.546-.054-2.806-.162-1.223-.108-2.05-.162-2.482-.162l-.54.108c-.36.072-.611.09-.755.054-.252-.072-.54-.379-.864-.919-.288-.577-.54-.919-.755-1.027-.576 0-1.314-.108-2.213-.324-.216-.108-.431-.847-.647-2.216-.72-.18-1.134-.288-1.242-.324-.54-.217-.827-.451-.863-.703 0-.288-.054-.757-.162-1.405a2.548 2.548 0 0 1-.648-.487 1.27 1.27 0 0 1 .055-.81c.071-.289.054-.56-.055-.811-.359-.216-.737-.685-1.133-1.406.144-.216.252-.594.324-1.135a24.215 24.215 0 0 0-.485-.81c.108-.252.161-.685.161-1.297a11.935 11.935 0 0 1-.485-.811c.108-.252.161-.72.161-1.406a7.981 7.981 0 0 0-.485-.81h-.324v-.649l.486-.162v-.486c-.576-.505-.774-1.1-.594-1.784.324-1.37.594-2.09.81-2.162.252-.108.287-.18.107-.216-.143-.072-.287-.343-.431-.81-.144-.505-.216-.83-.216-.974.036-.036.144-.216.324-.54.18-.36.234-.667.162-.92-.396-.504-.558-.774-.486-.81.252-.072.54-.72.863-1.946.36-1.26.54-2.251.54-2.972 0-.288-.036-.469-.108-.54.324-.29.702-.722 1.133-1.298.072-.433.234-1.063.486-1.892.072-.108.288-.378.648-.81.251-.289.377-.65.377-1.081 0-.145.054-.253.162-.325a6.01 6.01 0 0 1 .594-.378c-.036-.252.018-.63.162-1.135.108.036.27.036.485 0 .036-.18.144-.396.324-.649.18 0 .432-.054.756-.162.323-.468.863-1.099 1.618-1.891h.486c.144-.18.306-.343.486-.487.252-.072.558-.072.917 0 .432.108.72.162.864.162.216 0 .432-.054.647-.162.072-.072.288-.504.648-1.297.432.108.9.216 1.403.324.144 0 .414-.072.81-.216.395-.18.665-.27.81-.27zm.81 38.429.161.486c-.072-.324-.126-.486-.161-.486zm23.493-27.133c.36-.036.792.036 1.296.216.539.18.881.27 1.025.27.036 0 .144-.054.324-.162l.269-.162c.216-.036.468.018.756.162.288.108.45.162.486.162.036 0 .161-.054.378-.162l.377-.162c.396-.072.954-.018 1.673.162.756.18 1.223.325 1.403.433.396.252.666.612.81 1.08a2.948 2.948 0 0 0 0 .811c.108.072.252.163.432.27.395.613.611 1.082.647 1.406 0 .072-.054.144-.162.216-.108.036-.162.072-.162.108.072.397.072 1.009 0 1.838a5.894 5.894 0 0 1-.486.432c.037.613.037 1.495 0 2.649l-.269 1.08c.18.145.269.235.269.27l-.269.163c0 .433-.162.955-.486 1.567-.108.072-.054.217.162.433.108.36.287.576.539.648.252.036.54.09.864.162-.036.325-.144.83-.324 1.514-.18.18-.378.486-.594.919-.072.468-.035.937.108 1.405.217.108.432.252.648.433-.108.576-.162.882-.162.918.072.216.18.487.324.811-.072.036-.342.18-.81.433-.143.36-.18.828-.108 1.405.145.18.288.378.432.594-.108.397-.108 1.009 0 1.838.108.288.396.504.864.648.467.109.737.199.809.271.108.288.27.612.486.973h1.079c.252.108.558.054.918-.163a5.52 5.52 0 0 1 .593-.918c.036-.036.504-.199 1.403-.487-.108-.18-.162-.486-.162-.918.072 0 .18-.109.324-.325.648-.108 1.565-.306 2.752-.595.072-.756.072-1.423 0-2 .18 0 .432-.017.756-.053.359-.073.63-.108.809-.108.324-1.298.881-2.162 1.673-2.595v-.324c.18 0 .378-.054.594-.162v-.433c.18-.036.395-.09.647-.162 0-.18.054-.396.162-.648h.27v-.757c-.036 0-.09.108-.162.324-.648-.252-.953-.559-.917-.918.108-.145.216-.307.323-.487h.756c-.108-.36-.198-1.081-.27-2.162.072-.036.162-.09.27-.162v-1.19c-.036 0-.09.09-.162.271-.324.036-.935.09-1.834.162v-.162a10.449 10.449 0 0 0-.163-.757c.072 0 .126-.018.163-.054a.649.649 0 0 0 .161-.108c.216.144.468.306.756.486.611.037.917-.234.917-.81 0-.108-.036-.432-.108-.973-.072-.433-.072-.775 0-1.027.072-.072.162-.216.27-.432-.36-.037-1.025-.144-1.996-.325a8.808 8.808 0 0 0-1.08-.756c-1.115-.36-2.284-.36-3.507 0-.468.144-.774.198-.918.162a1.885 1.885 0 0 0-.486-.324c.396-1.117.396-2.703 0-4.757a2.83 2.83 0 0 1 .324-.486c.288-.18.683-.27 1.187-.27.252 0 .648.035 1.188.108.575.072 1.007.108 1.295.108.288 0 .539-.036.755-.108.36-.18.828-.379 1.403-.595.936-.144 1.709-.09 2.321.162.108.145.252.288.432.433.467-.037 1.133.017 1.996.162.288.144.612.522.971 1.135.252.432.504.883.756 1.351.108.144.306.396.594.757 0 .36-.054.468-.162.324.036.18-.018.234-.162.162 0 .036-.054.18-.162.433-.072.216-.108.378-.108.486 0 .036.144.342.432.919-.072.36-.126.865-.162 1.513l.162.325.323.486c-.071.757-.017 1.567.163 2.432a30.15 30.15 0 0 1-.163 1.081c-.287 1.297-.395 2.072-.323 2.324.144.144.306.342.486.595-.108.54-.217 1.261-.324 2.162.072.9.287 1.675.647 2.324.108.072.252.162.432.27v.487c-.252.18-.504.432-.755.756-.108.54 0 .847.323.919l-.486 1.081c.18.288.684.811 1.512 1.567l-.108.595c.683.072 1.565.252 2.644.541 1.079.288 1.709.558 1.889.81.216.217.396.595.539 1.135.18.541.378.901.594 1.081.036.036-.072.18-.324.433 0 .288-.09.648-.27 1.081-.252.216-.719.378-1.403.486-.503.108-1.025.198-1.565.27-1.259.324-3.04.487-5.342.487-.864 0-1.439-.054-1.727-.163-.144-.251-.396-.558-.756-.918-.432-.072-1.097-.27-1.996-.595-.216-.36-.63-.721-1.242-1.081-.215-.036-.611.163-1.187.595l-1.079.919v.324c-.432-.036-1.061.018-1.889.162a7.882 7.882 0 0 1-.917.757 5.184 5.184 0 0 0-.918-.325c-.575.253-1.331.523-2.266.811-.54.036-1.025-.054-1.457-.27-.432-.18-.828-.36-1.187-.541-.288 0-.702-.089-1.242-.27-.035-.18-.126-.396-.269-.648-.216-.037-.522-.145-.918-.325-.179-.288-.539-.63-1.079-1.026-.324.035-.792.035-1.403 0-.396-.145-.63-.595-.702-1.352-.072-.648-.144-1.279-.216-1.892l-.485-.486c-.504-1.153-.756-2.09-.756-2.81 0-.36.054-.703.162-1.027l.324-.163c.144-.324.288-.792.432-1.405-.108-1.621-.216-2.432-.324-2.432v-.325c0-.18.072-.36.216-.54.18-.216.27-.342.27-.378-.073-.252-.126-.72-.162-1.405.287-.469.593-1.028.917-1.676.072-.324-.036-.666-.324-1.027a8.704 8.704 0 0 1-.431-.648c.036-.289.036-.703 0-1.244a5.828 5.828 0 0 1-.594-.918c.144-.721.144-1.694 0-2.92h-.324a9.072 9.072 0 0 0-.917-.648c-.648.108-1.529.163-2.644.163-.18-.037-.486-.343-.918-.92-.072-.035-.216-.143-.431-.324.215-.72.305-1.17.269-1.35a5.72 5.72 0 0 0-.323-.487c-.216-.289-.306-.595-.27-.92.036-.432.233-.864.593-1.296.396-.433.81-.667 1.241-.703zm52.888-10.81c.216 0 .594.144 1.133.432.54.289.864.505.972.649.072.288.216.63.431 1.027.252.072.612.216 1.08.432.072.18.216.433.431.757.288.18.648.486 1.08.919.144.36.162.919.054 1.675l-.216 1.73h-1.079a8.6 8.6 0 0 0-.378.487c-.216.252-.324.396-.324.432.108.216.144.468.108.756.036 0 .144.054.324.163-.072.108-.126.306-.162.594-.936.072-1.331.126-1.187.162-.036-.036-.396-.162-1.08-.378-.539-.144-.971-.18-1.295-.108v.324h-.593c0 .036-.054.126-.162.27v.162c-.216.037-.396.019-.54-.053a1.4 1.4 0 0 0-.378-.216c-.467 0-1.115-.109-1.942-.325a11.43 11.43 0 0 0-.432-1.027c-.288-.288-.63-.739-1.025-1.351-.108-.288-.162-1.009-.162-2.162 0-1.19.054-1.928.162-2.216.036-.144.197-.27.485-.378.288-.108.468-.217.54-.325.108-.36.252-.81.432-1.351.467 0 1.115-.054 1.942-.162l.162-.324c.576-.36 1.116-.559 1.619-.595zm-2.536 11.675c.18-.036.378-.054.594-.054.719 0 1.637.162 2.752.486 1.007.288 1.637.54 1.888.757.036.18.09.378.162.594.144.036.342.09.594.163.036.18.09.378.162.594h.27l.485.919h.108c0-.036-.089.216-.269.757.071.252.125.702.161 1.35l-.485 1.46c.287.18.701.486 1.241.919-.036 0-.036.342 0 1.027l-.486.162c.072.432.072 1.027 0 1.784-.036.144-.126.216-.27.216l-.324-.054v.594c.037 0 .288-.054.756-.162.036.144.18.342.432.595 0 .072-.09.522-.27 1.351.252.144.306.45.162.919h-.324c-.108.18-.252.378-.432.594.036.288.18.793.432 1.514-.216.144-.324.234-.324.27.144.072.306.18.486.324-.108.54-.306 1.442-.594 2.703.36.288.756.774 1.188 1.459a.715.715 0 0 1-.163.432l-.161.163c-.144.648.018 1.243.485 1.783.036.072.27.18.702.324.252.073.611.127 1.079.163l.162.432c.036 0 .072-.144.108-.432h1.511c.072.18.126.27.162.27.18-.036.432-.072.756-.108-.109.18-.216.414-.324.702 0 .144.054.451.161.919.18-.144.468-.396.864-.756l-.108-.595c.072-.036.162-.126.27-.27.288.036.737.18 1.349.432.072.144.18.289.324.433.36 0 .899.108 1.619.324.36.18.701.703 1.025 1.567.324.865.432 1.586.324 2.162l-1.026 1.351c-.647.685-1.295 1.082-1.942 1.19-.648-.073-1.655-.127-3.022-.162-.252.035-.792.125-1.619.27-.827.144-1.421.198-1.781.162-.18 0-.575-.054-1.187-.162-.576-.108-1.026-.145-1.349-.108-.504.108-.81.162-.918.162a29.934 29.934 0 0 0-1.025-.487c-.971-.144-2.266-.234-3.886-.27a1079.46 1079.46 0 0 1-5.396-.162l-.162-.271c-.611.073-1.547.109-2.806.109-.36-.036-1.169-.289-2.428-.757-.144.036-.378 0-.702-.108v-.486a7.14 7.14 0 0 1-.485-.271c.035-.18.089-.54.161-1.081a1.96 1.96 0 0 1-.161-.594c.107-.829.557-1.369 1.349-1.622.431-.144 1.115-.162 2.05-.054 1.007.072 1.673.09 1.997.054.18-.18.432-.378.756-.594.395-.036 1.043-.09 1.942-.162l.108-.433c.252.036.396.054.432.054.324.036.557.072.701.108h.108l.864-.324c.395-.36.647-1.621.755-3.783.036-1.478.09-2.955.162-4.433.108-.396.252-.954.432-1.675-.072-.54-.126-1.423-.162-2.648.144-.577.198-.937.162-1.081l-.27-.595c.072-.649.108-1.585.108-2.81a29.2 29.2 0 0 1-.432-.92h-.27l-.485-1.026c-.324-.216-.738-.324-1.242-.324-.323 0-.845.054-1.564.162-.72.108-1.224.162-1.512.162-.395-.036-1.583-.234-3.561-.595-.252 0-.558-.054-.917-.162-.037-.252-.145-.613-.324-1.081a7.451 7.451 0 0 0-.54-.703 1.188 1.188 0 0 1-.162-.918c0-.18.288-.487.864-.92v-.27c1.906-.576 3.112-.828 3.615-.756.216.18.558.378 1.025.594.54-.036 1.242-.036 2.105 0 .036 0 .216.09.54.27.216.145.485.199.809.163.648-.036 1.187-.234 1.619-.595-.036-.144.108-.342.432-.594zm12.142 22.322c.683-.108 1.025 0 1.025.324 0 .109-.144.144-.431.109-.612.108-.918.071-.918-.109 0-.072.054-.144.162-.216.108-.072.108-.108 0-.108h.162zm21.599-33.835c.684-.072 1.206.126 1.566.595.143.18.377.648.701 1.405-.036.144.018.342.162.595.288.071.737.18 1.349.324-.036.18-.126.432-.27.756-.144 0-.305.054-.485.163.072.036.018.18-.162.432.36.252.611.414.755.487-.072.684-.072 1.135 0 1.35l.486.163c.324.252.413 1.009.27 2.27a41.05 41.05 0 0 1-1.943-.432v.594c1.079.108 1.727.36 1.943.757 0 .108.054.27.162.486.287.072.701.217 1.241.433.072.144.162.306.269.486.252-.144.72-.252 1.404-.324l.431.432h1.674c.035-.216.089-.558.161-1.027.18-.036.432-.036.756 0 .036.109.09.252.162.433l.917.594c.468-.036 1.133-.036 1.997 0 .719.145 1.151.396 1.295.757-.036.072-.018.234.054.486.324.216.683.523 1.079.919v.325c.036.035.144.054.324.054.18 0 .288.252.324.756a8.808 8.808 0 0 0-.054.973h-.756c-.18.216-.432.486-.755.811-.684.432-1.493.684-2.429.757-.539.035-1.259-.073-2.158-.325a7.48 7.48 0 0 0-.917-.432c-.252-.036-.523.054-.81.27-.252.18-.432.288-.54.325-.324-.037-.827-.037-1.511 0-.468.144-1.079.342-1.834.594 0 1.441-.109 2.666-.324 3.675l-.27.432v.487c.072-.108.126-.09.162.054a.481.481 0 0 1-.054.216c-.216 1.586-.234 2.45-.054 2.595.18.108.197.414.054.919a7.064 7.064 0 0 0-.432.756c0 .18.054.343.162.487l.162.162c-.108.216-.162.576-.162 1.08.108 0 .252.037.432.109.036.252.09.666.161 1.243h.163c-.072.036-.126.144-.163.324.144.18.306.379.486.595-.108.252-.198.378-.269.378-.037 0-.054-.036-.054-.108v.325h.161c.072-.145.162-.289.27-.433.072.072.234.108.486.108l.432-.432c.071.108.143.234.215.378.108.108.252.288.432.54v-.324a21.9 21.9 0 0 1 1.349-.27c.036-.216.09-.433.162-.649.18.073.486.073.917 0-.035-.108-.035-.252 0-.432h.162c.648-.54.99-.9 1.026-1.08-.036-.29-.09-.685-.162-1.19.144-.36.305-.829.485-1.405.144.035.738.035 1.781 0 .792 0 1.368.126 1.727.378.396.216.738.72 1.025 1.514.36.972.612 1.567.756 1.783.18.216.701.523 1.565.919v.162c.108-.036.252-.036.432 0 .324.18.485.36.485.54 0 .109-.359.379-1.079.811.324.433.576.793.755 1.081v.595a4.76 4.76 0 0 0-.701.378c-.252.144-.378.271-.378.379 0 .108.306.324.918.648v.27c-.36.325-.918.829-1.673 1.514.18.144.396.36.648.648.035.217-.019.577-.163 1.081-.108.361-.215.703-.323 1.027-.252.072-.9.126-1.943.162l-1.079.325c-.108-.073-.36-.127-.756-.162-.431.072-.827.288-1.187.648-.54.504-.864.793-.971.865-.216.144-.522.216-.918.216-.611.036-1.007.072-1.187.108-.324.18-.791.378-1.403.595-.504.072-1.115 0-1.835-.217l-1.511-.54c-.683-.108-1.637-.415-2.86-.919a7.826 7.826 0 0 0-.809-.919h-.432a4.993 4.993 0 0 0-.162-.594c-.252-.18-.558-.433-.918-.757-.107-.252-.161-1.081-.161-2.486v-.27c0-.036-.252-.577-.756-1.622-.323-.684-.486-1.243-.486-1.675 0-.505.163-.991.486-1.46-.647-1.441-.971-2.45-.971-3.026 0-.217.036-.397.108-.541.108-.144.251-.27.431-.378.109-.18.109-.433 0-.757v-.324l.27-.433c-.108-.432-.198-1.153-.27-2.162.216-.324.468-.72.756-1.189.036-.252.054-.504.054-.757 0-.36-.108-.99-.324-1.891-.216-.793-.288-1.441-.216-1.946-.18-.036-.432-.144-.755-.324.036-.108.036-.253 0-.432 0-.037-.306-.451-.918-1.244-.215-.036-.521-.036-.917 0l-.108.487c-.108 0-.324.053-.647.162-.468.072-1.044.054-1.728-.054-.827-.108-1.421-.144-1.78-.108-1.835.108-2.788.162-2.861.162l-1.079-.811c-.036-.396.018-1.207.162-2.432.108-.613.468-.973 1.08-1.081a36.045 36.045 0 0 1 1.942-.27c.288-.18.648-.379 1.08-.595.359-.108.809-.126 1.349-.054.539.108 1.007.126 1.403.054.215-.144.467-.306.755-.486h1.997c-.036-.109-.036-.252 0-.433.252-.252.558-.612.917-1.08-.179-.289-.288-.74-.324-1.352.252-.252.504-.558.756-.919-.036-.18-.144-.45-.324-.81.072-.217.126-.667.162-1.352l-.27-.162v-1.675l.918-.757c.108-.36.306-.865.593-1.514h.594c.108-.108.27-.216.485-.324zm6.962 28.106h1.079c.252.72.306 1.369.162 1.945l-.593-.162h-1.403c.071-.396.18-.9.323-1.513.144-.072.288-.162.432-.27zm-.27 3.35v.595c.144 0 .198-.108.162-.324-.036-.252-.09-.342-.162-.27zm12.79 1.352c.108 0 .162.018.162.054-.036.072-.09.108-.162.108-.108 0-.162-.036-.162-.108 0-.036.054-.054.162-.054zm-.594.324c.072 0 .126.018.162.054-.036.036-.09.054-.162.054-.108 0-.162-.018-.162-.054 0-.035.054-.054.162-.054zm16.779-25.024c.072 0 .27.108.594.324.324.18.522.27.594.27.539-.144 1.367-.198 2.482-.162.324.324.684.63 1.079.919.216-.18.72-.325 1.511-.433.468.073 1.098.379 1.889.92.072.18.216.377.432.594.072.072.126.09.162.054v-.108c0-.108.054-.144.161-.108v.324c.648.36 1.278.703 1.889 1.027.756.432 1.295.865 1.619 1.297.072.072.396.576.972 1.513-.108.037-.162.126-.162.27 0 .325.144.793.431 1.406.288.576.522.883.702.919.216.036.593.108 1.133.216.072.072.18.162.324.27l-.162.324h-.594c-.431.109-.647.433-.647.974v1.35c0 .037-.054.163-.162.379-.108.216-.144.396-.108.54 0 .037.054.199.162.487.108.288.144.54.108.757 0 .035-.09.18-.27.432a1.275 1.275 0 0 0-.162.81l.324.27c.216.65.252 1.316.108 2 0 .145-.144.415-.432.811-.252.36-.36.721-.324 1.081.036.109.162.325.378.65.252.324.378.558.378.702 0 .18-.09.342-.27.486h-.755c-.036.144-.054.523-.054 1.135.035.577.054.865.054.865.035.108.377.36 1.025.757.216.216.486.414.81.594.107.036.377.036.809 0 .431-.072.72-.108.863-.108l.162-.324c.324-.072.612-.108.864-.108.899 0 1.637.756 2.212 2.27.18.36.378.865.594 1.513a5.387 5.387 0 0 0-.162.811c-.144.036-.342.18-.594.432a1.985 1.985 0 0 0-.431.487v.594c-.288.216-.648.523-1.08.919.18 0 .27.09.27.271 0 .324-.252.846-.755 1.567-1.116-.144-2.033-.036-2.752.324-.18.18-.468.36-.864.54-.36.181-1.062.253-2.105.217-1.079-.036-1.78-.126-2.104-.271a35.79 35.79 0 0 0-.918-1.243c-.252-.252-.719-.504-1.403-.756-.324-.144-.575-.198-.755-.162-.972.144-1.745.396-2.321.756v.325c-.216.18-.467.378-.755.594-.144-.036-.36-.036-.648 0l-.162.324c-.359-.072-.863-.126-1.511-.162a7.036 7.036 0 0 1-.755.433c-.432-.036-1.061-.036-1.889 0-.432.216-1.043.432-1.835.648-.18 0-.413-.054-.701-.162-.288-.108-.468-.162-.54-.162-.396.072-.953.126-1.673.162a17.321 17.321 0 0 0-1.079-.486c-.468.072-1.187-.018-2.159-.271a8.403 8.403 0 0 0-.917-1.405c-.36-.108-.864-.306-1.511-.594-.36-.216-.882-1.045-1.565-2.487-.252-.432-.558-1.045-.917-1.837.036-.325.036-.793 0-1.405-.037-.109-.163-.343-.378-.703-.18-.36-.252-.685-.216-.973.144-.324.288-.739.431-1.243-.107-.252-.161-.72-.161-1.406.072-.18.269-.342.593-.486.36-.18.576-.324.648-.432v-.433c.252-.468.557-1.08.917-1.838 0-.216.054-.54.162-.972.216-.289.99-.739 2.321-1.352v-.162c.252.036.557.036.917 0 .072-.252.18-.558.324-.919h.27c-.864-.216-1.529-.522-1.997-.918-.072-.253-.27-.559-.594-.92l-.701-.27c-.18-.071-.288-.305-.324-.702a.602.602 0 0 0-.054-.27c-.18-.108-.378-.325-.593-.649-.073-.18 0-1.009.215-2.486.252-1.514.45-2.36.594-2.54.18-.18.414-.451.701-.811v-.433c.684-1.008 1.098-1.585 1.242-1.73.143-.143.683-.504 1.618-1.08.936-.577 1.476-.883 1.62-.92.215.145.665.253 1.349.325.323-.288.791-.594 1.403-.919.395.037.953.037 1.672 0 .145-.036.432-.198.864-.486.468-.288.81-.432 1.025-.432zm-.161 5.837-.324.324c-.396-.036-.954-.036-1.673 0-.288.18-.648.379-1.08.595h-.323c0 .396-.108.918-.324 1.567h-.594c-.144.72-.144 1.28 0 1.676.252.36.36.522.324.486-.072-.072-.18-.036-.324.108.072.36.072.63 0 .811a2.301 2.301 0 0 0-.593.595c.036.432.036 1.099 0 2 2.266.18 3.741.18 4.425 0l.162-.325c.647-.396 1.259-.649 1.834-.757.54-.072 1.314-.018 2.321.162.036-.251.144-.666.324-1.243-.18 0 .395.036 1.727.109.755 0 1.259-.09 1.511-.27.143-.109.252-.361.323-.758.108-.396.198-.756.27-1.08a54.303 54.303 0 0 1-1.996-1.081 6.66 6.66 0 0 0-.324-.433c-.18-.036-.486-.144-.918-.324-.144-.252-.449-.559-.917-.92-.576-.07-1.403-.233-2.482-.485-.037 0-.198-.163-.486-.487-.216-.216-.504-.306-.863-.27zm5.504 12.918v.324c-.36.108-1.026.324-1.997.648-.144.109-.342.253-.594.433-.791 0-1.978.054-3.561.162-.648.253-1.511.558-2.59.919-.108-.036-.27-.036-.486 0-.036.18-.126.378-.27.594-.36.145-.827.36-1.403.649 0 .252.018.505.054.757 0 .216-.126.378-.378.486-.251-.036-.611-.036-1.079 0l-.162.27h-.432c0 .145.054.36.162.649.288.144.648.343 1.08.594a1.077 1.077 0 0 0 0 .487c.107-.036.251-.036.431 0 .18.072.414.324.702.757.287.432.522.684.701.756h.594c.684.18 1.151.235 1.403.162.144-.144.342-.306.593-.486.936-.18 2.123-.018 3.562.486v.109c0 .036.054.054.162.054v-.163c.756-.396 1.169-.648 1.241-.756-.036-.216 0-.523.108-.919h.324c.144-.252.36-.522.648-.81h1.187c.36-.938.989-1.694 1.889-2.271-.144-.072-.108-.18.108-.324 0-.036-.09-.198-.27-.487h.27c.035-.108.089-.306.161-.594-.252-.18-.557-.486-.917-.919a6.683 6.683 0 0 0-.324-1.027c-.144-.396-.449-.577-.917-.54zm43.57-17.35c.431-.072.953 0 1.565.216.36.144.737.288 1.133.433.612-.073 1.511-.019 2.698.162.324.324.792.738 1.403 1.243.18.036.45.144.81.324.108.252.324.577.647.973.145 0 .306.054.486.162 0 .252.054.613.162 1.081.288.324.612.81.971 1.46.036.324-.054.666-.269 1.026-.18.36-.252.703-.216 1.027.144.324.305.703.485 1.135.072 1.045-.09 1.946-.485 2.703-.216.108-.432.27-.648.486.036.144.036.306 0 .487-.288.36-.701.576-1.241.648-.504.036-1.043.09-1.619.162-.216.145-.486.307-.81.487h-2.536c-.252-.865-.576-1.46-.971-1.784-.144 0-.306-.054-.486-.162 0-.144-.054-.36-.162-.649l-.486.162v.325c-.251.108-.611.072-1.079-.108a10.71 10.71 0 0 1-.971-.379c-.108-.396-.108-.558 0-.486.108-.18.216-.378.324-.594.431.035.593.09.486.162.251.144.557.288.917.432.288.036.432-.036.432-.216 0-.144-.126-.36-.378-.649-.252-.324-.414-.504-.486-.54v-.163l-.324.325c-.647.216-1.709.108-3.184-.325a11.762 11.762 0 0 0-.809-.486c-.072.072-.234.126-.486.162-.108.217-.269.595-.486 1.135l-.323.163c.036.216-.018.576-.162 1.08-.144.037-.342.09-.594.162-.036.145-.09.307-.161.487a1.95 1.95 0 0 0-.648 0c-.036.18-.09.396-.162.649-.288.108-.63.432-1.025.973-.144.396-.198.937-.162 1.621.108.829.125 1.46.054 1.892 0 .036-.054.216-.162.54-.108.325-.162.559-.162.703 0 .036.072.216.216.54.144.288.179.54.108.757a3.76 3.76 0 0 0-.486.648c.36.505.648.757.863.757.18 0 .486-.252.918-.757.396.109.611.163.648.163.071.937.125 1.351.161 1.243-.215.36-.432.739-.647 1.135.288.36.593.72.917 1.081l.162.811c.827-.361 1.511-.541 2.051-.541.395 0 .773.072 1.133.217.252.108.468.342.647.702.324.577.486.883.486.919a33.974 33.974 0 0 1 1.673 1.567c.755.721 1.044 1.478.864 2.27-.18.144-.378.36-.594.649-.072.18-.234.432-.486.757h-.486c-.359.216-.899.432-1.618.648-.396-.036-.972-.036-1.727 0v.324c-.396.145-.828.307-1.296.487a3.028 3.028 0 0 1-1.24.162 58.62 58.62 0 0 0-1.134-.487c-1.367-.288-2.482-.342-3.346-.162l-.324.325c.109-.036-.323-.09-1.294-.163.179 0-.343.055-1.566.163-.899-.072-2.176-.126-3.831-.163-.036 0-.252.055-.647.163-.36.108-.576.162-.648.162-.216-.036-.468-.162-.756-.379-.251-.251-.413-.396-.485-.432l-1.619-.324-.162-.324c-.72.108-1.205.108-1.457 0-.144-.108-.45-.415-.917-.919a3.778 3.778 0 0 1-.486-.162c0-.216-.054-.541-.162-.973.324-.469.863-1.117 1.619-1.946a16.41 16.41 0 0 0 1.079-.432 5.56 5.56 0 0 1 .324-.487c.36-.108.773-.054 1.241.162.503.181.953.235 1.349.162v-.162c.324-.252.683-.522 1.08-.811.683 0 1.636-.108 2.86-.324l.161-.324c.18-.036.396-.144.648-.324.18-.324.27-.649.27-.973 0-.216-.054-.595-.162-1.135-.108-.54-.144-1.01-.108-1.405 0-.037.072-.343.216-.92.108-.468.144-.846.108-1.134 0-.037-.072-.199-.216-.487-.108-.288-.144-.558-.108-.81h.162c.144-.505.467-1.136.971-1.892-.072-.036-.126-.199-.162-.487-.036-.108.018-.216.162-.324-.108-.288-.108-.45 0-.487-.252-.396-.521-.918-.809-1.567a1.106 1.106 0 0 0 0-.486 5.69 5.69 0 0 0-.486-.325c-.036-.216.036-.414.216-.594.18-.217.27-.342.27-.379-.036-.252-.036-.612 0-1.08l.485-1.298.324-.162c-.072-.612-.126-.828-.162-.649v-.324c-.179-.036-.449-.144-.809-.324.108-.72.162-1.027.162-.919 0-.288-.216-.504-.648-.648a1.903 1.903 0 0 0-.755-.163c-.288 0-.666.073-1.133.216-.468.145-.792.235-.972.271-.863.108-1.709 0-2.536-.325l-.162-.324c-.504.144-1.295.144-2.375 0-.359-.144-.629-.576-.809-1.297a3.064 3.064 0 0 1-.162-.973c0-.468.324-1.405.971-2.81 2.195.072 3.454.072 3.778 0a5.34 5.34 0 0 1 .81-.65c.287-.071.575-.017.863.163l.432.325c.431.035 1.007 0 1.726-.108.72-.109 1.26-.127 1.619-.055.504.144 1.241.343 2.213.595v.324c.216 0 .54.054.971.162.144.217.414.433.81.649.503-.036 1.241-.036 2.212 0 .036 0 .306.072.81.216.395.108.701.144.917.108a67.49 67.49 0 0 1 1.781-1.135c.108.036.27.036.486 0 .251-.18.557-.378.917-.594.396.036.989.036 1.781 0l.162-.325a14.74 14.74 0 0 1 1.295-.486zm-7.501 19.62c.108.036.162.126.162.27a.848.848 0 0 0-.162.216c-.108-.216-.108-.378 0-.486zm28.544-17.999c-.216 0 .143.054 1.079.163 1.223-.145 3.004-.145 5.342 0 .144.144.342.288.594.432.468-.036 1.133-.036 1.997 0 .252.324.701.685 1.349 1.08.036 0 .198-.107.486-.324.143 0 .252.054.323.163.108.108.198.216.27.324.144.036.342.036.594 0l.162-.487c.323.073.683.289 1.079.649a.88.88 0 0 0 0 .433h.27v-.433c.288-.18.594-.396.917-.649.576-.144.989-.144 1.241 0v.325c.216.288.468.703.756 1.243-.036.252-.036.595 0 1.027l.324.162c-.108.18-.162.594-.162 1.243.144.217.287.469.431.757-.072.252-.107.702-.107 1.351.072.18.161.397.269.649h.324c.072.288.018.594-.162.919-.144.324-.198.576-.162.756l.918 1.19c-.288.216-.648.522-1.08.918 0 .216-.035.523-.107.919a3.24 3.24 0 0 0-.648.594c.036.18.036.433 0 .757.072.072.108.18.108.325 0 .143.108.234.324.27.216 0 .323.018.323.054.145.18.36.378.648.594.504-.036.846-.09 1.026-.162.251-.252.251-.342 0-.27.107-.18.215-.234.323-.162v.432c.036 0 .09.216.162.649a12.888 12.888 0 0 0-1.511-.162c-.036.144-.144.342-.324.594v.162c.252.144.666.397 1.241.757-.251.937-.36 1.495-.323 1.675.108.037.252.09.432.163.035.18.089.432.161.757h.162c-.072.143-.126.45-.162.918l1.079 1.081c-.215.613-.341.937-.377.973 0 .036-.234.216-.702.541l.324 1.513-.27.27c-.144.144-.215.252-.215.325v.162c-.18.036-.378.09-.594.162 0 .216-.054.576-.162 1.081-.36.216-.756.558-1.187 1.027v.324h-.324c0 .108-.054.27-.162.487-.252.072-.612.216-1.079.432-.252.396-.702.847-1.35 1.351-.503.036-1.259.144-2.266.324a18.83 18.83 0 0 1-1.403.919h-1.943l-.162-.432c-.144-.036-1.115-.09-2.914-.162-.791.036-1.852-.018-3.184-.163-.144-.035-.557-.45-1.241-1.243-.647.037-1.511-.054-2.59-.27-.072-.288-.216-.702-.432-1.243h-.755c-.252.288-.666.703-1.242 1.243-.143.036-.341.126-.593.27 0 .145-.162.361-.486.649-.36.144-.647.18-.863.108-.252-.072-.558-.577-.918-1.513a10.633 10.633 0 0 0-.323-.757 2.419 2.419 0 0 1-.432-.433c-.108-.251-.09-.864.054-1.837s.27-1.531.378-1.676l.323-.324-.323-.756c-.684-1.694-1.026-3.117-1.026-4.27 0-.325.036-.577.108-.757.36-1.01 1.098-1.514 2.213-1.514.251 0 .485.036.701.108.072.073.27.38.594.92h.917c.504.288.612.396.324.324v.162c-.252 0-.252.054 0 .162.036.288.072.486.108.594l-.108.433c.36.252.756.522 1.187.81.144-.072.396-.126.756-.161v-.487l.324-.162c.072-.36-.072-.793-.432-1.297l-.486-.81c.036-.217.036-.523 0-.92a2.829 2.829 0 0 1-.485-.324c.035-.18 0-.487-.108-.919a9.985 9.985 0 0 1-.648-.432c-.36.288-.864.486-1.511.594.036-.144.036-.342 0-.594a7.435 7.435 0 0 1-.756-.757c0-.216-.054-.522-.161-.919a8.53 8.53 0 0 1-.432-.594c.072-.505.018-1.225-.162-2.163-.252-.035-.557-.18-.917-.432-.072-.144-.126-.81-.163-2-.071-1.152-.071-1.82 0-2a18.9 18.9 0 0 0 1.08-.918l-.162-.595c.288-.252.72-.522 1.295-.81.144 0 .378-.037.702-.109v-.432c.036-.108.126-.216.27-.324.359-.036.917-.09 1.673-.162.107-.433.269-.937.485-1.514.072-.108.414-.288 1.026-.54.611-.253 1.025-.379 1.241-.379zm0 4.865c-.36.072-.738.396-1.134.973-.431.684-.755 1.08-.971 1.189h-.162v.27c-.18.108-.485.27-.917.487.072.504.126.702.162.594-.072.865-.072 1.585 0 2.162.036-.036.287-.09.755-.162v-.325c.18-.035.702 0 1.565.108.864.073 1.349.145 1.457.217.108.216.27.468.486.757.108.072.576.324 1.403.756.863.396 1.349.595 1.457.595.683.108 1.817.018 3.4-.27.108-.072.234-.145.377-.217.18-.108.342-.144.486-.108l.486.324c.683.145 1.241.09 1.673-.162.072-.144.18-.306.324-.486h1.187c.072-.252.18-.703.324-1.352-.324-.18-.792-.486-1.404-.918-.144-.253-.395-.558-.755-.919h-.108c-.108-.288-.108-.847 0-1.676-.324-.035-.738-.09-1.241-.162l-.162-.27c-.18.072-.54.126-1.079.162l-.594-.324c-.431.108-1.133.162-2.105.162-.252-.288-.611-.594-1.079-.919-.252-.108-.899-.216-1.942-.324-1.008-.144-1.638-.198-1.889-.162zm8.526 12.972c-.072.18-.162.378-.27.594.108.144.144.306.108.486-.252.217-.449.631-.594 1.244-.251.036-.611.036-1.079 0-.107-.18-.252-.397-.431-.649-.108.036-.252.036-.432 0a8.345 8.345 0 0 0-.162-.432c-.396-.36-1.169-.613-2.32-.757a5.36 5.36 0 0 0-.756 1.676c-.288 0-.792.054-1.511.162a2.842 2.842 0 0 0-.324-.487c-.108.036-.252.036-.432 0 .037.144-.017.306-.161.487-.072.54-.019.793.161.756l.162 1.027.756.325.162.324h-.648c.108.216.27.612.486 1.189h.917c.756.252 1.368.558 1.835.919.072.144.162.306.27.486.252.072.594.054 1.025-.054.468-.144.81-.216 1.025-.216.18 0 .36.036.54.108.072.18.234.433.486.757.18.072.431.18.755.324a5.374 5.374 0 0 1 1.133-1.73c.468-.468.954-.918 1.458-1.351v-.432a3.439 3.439 0 0 1-.594-.649c-.072-.252-.036-.702.108-1.35l.216-.217c.108-.108.144-.234.108-.378-.144 0-.324-.09-.54-.27.036-.18.018-.397-.054-.65-.144 0-.306-.053-.485-.162.035-.216-.019-.468-.162-.756a7.9 7.9 0 0 0-.756-.324zm-3.616 3.188h.756l.162.649a7.457 7.457 0 0 0-.486.27h-.755l-.324-.432.486-.324.161-.163zM39.394 83.855c.246-.028.793.068 1.64.287.876.192 1.409.343 1.6.452.082.137.205.288.37.452.41 0 .929.164 1.558.493 0 .219.068.575.205 1.068a9.2 9.2 0 0 1 .738.74c.082.383.246.903.492 1.56.11.028.26.096.451.205-.273.931-.382 1.534-.328 1.808.028.082.069.178.123.287.082.11.11.22.082.33-.3.41-.615 1.012-.943 1.806 0 .137.041.411.123.822.055.301.014.589-.123.863-.11.027-.232.055-.369.082 0 .164-.082.41-.246.74-.192.081-.424.246-.698.492 0 .164-.04.356-.123.575-.163.028-.368.069-.615.123v.247c-.191.082-.423.096-.697.04-.246-.081-.45-.095-.615-.04v.123c-.219.11-.779.548-1.681 1.314v.493c-.055.52-.055.877 0 1.068.054.137.273.329.656.576.383.246.615.41.697.492a.847.847 0 0 0 0 .37c.082.246.274.452.574.616v.124a78.38 78.38 0 0 1 1.436-.124c0-.137.027-.465.082-.986.027-.328.013-.588-.042-.78a.87.87 0 0 0-.41-.534c.11-.027.15-.11.123-.246.63-.055 1.518-.206 2.666-.452-.738-.384-1.107-.794-1.107-1.233 0-.246.164-.479.492-.698.328-.055.766-.22 1.313-.493.027-.192.123-.452.287-.78.191-.33.45-.548.779-.657.41.027 1.011.027 1.804 0 .246-.11.533-.233.862-.37.219 0 .642.11 1.271.328.629.22 1.039.397 1.23.534.602.411.958.767 1.067 1.068v.37c.273.055.629.178 1.066.37.11.082.178.233.205.452.028.164.028.328 0 .492-.027.165-.054.206-.082.124.028.219.11.616.246 1.191a2.619 2.619 0 0 0-.246 1.109c0 .165.041.233.123.205-.11.028-.027.069.246.124v.37a2.35 2.35 0 0 1-.369.369c-.191 0-.506.041-.943.123a7.268 7.268 0 0 1-1.066.452c-.192.027-.493-.041-.903-.205-.492-.165-.793-.247-.902-.247-.164.028-.41.028-.738 0-.055-.164-.219-.342-.492-.534-.082 0-.233-.027-.452-.082-.054-.109-.178-.274-.368-.493-.274-.192-.712-.301-1.313-.329v.206c-.328.219-.52.465-.574.74.082.082.123.205.123.369l-.246.123c.054.028.096.137.123.329a7.13 7.13 0 0 0-.205.287c-.11.165-.165.274-.165.329 0 .055.042.123.123.205.083.055.124.11.124.165a4.086 4.086 0 0 0-.615.698c.082.52.082 1.082 0 1.684.464.164.697.261.697.288.082.219.164.452.246.698a5.112 5.112 0 0 0-1.067.575c.165.712.287 1.205.37 1.479.245.739.492 1.15.738 1.232.191-.027.505-.013.943.041.055.028.082.124.082.288 0 .137-.027.205-.082.205.574.083 1.135.123 1.681.123.055-.301.206-.657.452-1.068.082-.054.465-.191 1.148-.41.438-.11.684-.356.738-.74.028-.301.684-.52 1.97-.657.026.082.067.164.122.247.219.109.451.369.697.78.246.411.452.671.615.78.41.11 1.012.302 1.805.576-.137.191-.178.315-.123.369-.3.165-.738.397-1.312.699v.492c.546.11 1.257.275 2.132.494l-.123.451h-1.681a1.695 1.695 0 0 1-.082.206c-.028.027-.192.082-.493.164.055.11.137.233.247.37a2.84 2.84 0 0 1 .697 0l.615.369c-.11.384-.15.575-.123.575h-2.543c-.11.082-.219.274-.328.576-.082.273-.164.452-.246.534-.055.054-.315.191-.78.41-.437.192-.697.288-.779.288-.136.027-.341.014-.615-.041a14.075 14.075 0 0 1-.45-.083c-.466.138-1.19.22-2.175.247l-.368-.369a4.073 4.073 0 0 1-.821 0c-.164-.11-.41-.261-.738-.452h-.451l-.37-.37c-.273 0-.67-.082-1.189-.247a95.868 95.868 0 0 1-1.189-1.068v-.246h-.246c-.164.137-.37.301-.615.493a.85.85 0 0 0-.37 0c-.136.246-.328.52-.574.821-.164 0-.41.041-.738.123v.247c-.082.219-.397.411-.943.575-.274 0-.67.041-1.19.124v.246c-.191.082-.396.164-.615.246.028 0-.574-.041-1.804-.123-.438.082-1.149.123-2.133.123a58.614 58.614 0 0 0-1.681-.492c-.192.027-.479-.014-.862-.124a26.43 26.43 0 0 0-.697-.945c-.164-.054-.41-.178-.738-.369a2.51 2.51 0 0 0-.328-.452c-.164-.027-.41-.11-.739-.247l-.492-.862a.917.917 0 0 0 .123-.329 36.172 36.172 0 0 1-.697-.616c-.055-.274-.178-.712-.369-1.315l-.492-.492a1.987 1.987 0 0 0 0-.576 9.611 9.611 0 0 1-.328-.739c.027-.082.068-.287.123-.616-.055-.246-.11-.507-.164-.78a2.73 2.73 0 0 1 0-.945c.082-.274.3-.548.656-.822.383-.274.574-.424.574-.452-.055-.356-.055-.862 0-1.52.137-.054.287-.137.451-.246.028-.192.11-.479.246-.862.137-.028.287-.124.451-.288.192-.164.329-.671.41-1.52.274-.082.67-.233 1.19-.452.055-.109.137-.233.246-.37.082.028.205.028.37 0v-.123c.245-.137.382-.274.41-.41.054-.137.15-.398.286-.781.055-.11.424-.52 1.108-1.232.601-.603.916-1.027.943-1.274.027-.329-.137-.726-.492-1.191-.356-.466-.56-.794-.615-.986 0-.548-.069-1.465-.205-2.752-.028-.055-.137-.26-.329-.616a1.484 1.484 0 0 1-.163-.822c.136-.3.3-.657.492-1.068a2.304 2.304 0 0 1 0-.616c.082 0 .191-.041.328-.123.027-.027.11-.26.246-.698a9.08 9.08 0 0 1 0-1.233c.191-.136.396-.287.615-.451 0-.137.041-.302.123-.493h.328c.11-.137.274-.302.492-.493.246.054.643.013 1.19-.124.054-.082.136-.192.246-.328h.369a.669.669 0 0 1 .287-.329c.137-.082.478-.178 1.025-.287zm.861 3.121v.124c-.109 0-.273.041-.492.123v.247c-.191.054-.41.04-.656-.042-.246-.082-.424-.11-.533-.082-.219.028-.547.288-.984.78-.438.466-.67.795-.698.986-.054.22-.027.466.082.74.11.274.165.48.165.616-.137.247-.26.561-.37.945-.136.904-.095 1.588.123 2.054h.123c.164.082.329.342.493.78.164.41.314.671.45.78.329.083.807.233 1.436.453.055-.11.137-.26.246-.452h.246c0-.22.082-.466.246-.74.165 0 .397-.04.698-.123.355-.22.752-.863 1.189-1.93-.273-.11-.588-.343-.943-.699v-.37l.123-.123c.3-.301.465-.493.492-.575 0-.11-.041-.315-.123-.616 0-.082.04-.165.123-.246.082.246.191.602.328 1.067h.246c.137.192.26.397.37.617l.245-.124a2.932 2.932 0 0 1 0-.698c0-.164.041-.356.123-.575.11-.22.164-.384.164-.493 0-.192-.136-.397-.41-.616a6.744 6.744 0 0 1-.861-.37 5.372 5.372 0 0 0-.205-.74 6.364 6.364 0 0 1-.738-.328c-.028-.027-.069-.15-.123-.37-.082-.054-.274-.054-.575 0zm1.067 1.068c.109 0 .191.028.246.083.054.054.068.096.04.123-.054.055-.15.068-.286.041.137 0 .095.041-.123.123-.082-.219-.041-.342.123-.37zm-4.06 13.186c-.274.028-.63.192-1.067.493-.574.356-.902.561-.984.616-.11-.027-.273-.027-.492 0-.11 0-.451.137-1.026.411-.574.274-.888.452-.943.534a.956.956 0 0 0-.164.247 25.72 25.72 0 0 1-.984 1.191h-.123c.027.082.027.205 0 .37-.11.054-.219.137-.328.246-.164.411-.22.89-.164 1.438.109.931.164 1.451.164 1.561-.137 0-.178.013-.123.041a.506.506 0 0 0 .123.082c.082.027.082.054 0 .082h.123a2.89 2.89 0 0 0-.123.37c.191.109.423.233.697.369v.124c.027 0-.014.041-.123.123 0 .191-.041.548-.123 1.068.219.274.547.589.984.945.219.164.506.246.861.246h.698c.218.164.492.329.82.493a6.863 6.863 0 0 1 1.066 0l.37.247c.19.027.423.013.696-.042.301-.082.547-.109.739-.082.027 0 .164.082.41.247.246.137.465.178.656.123v-.246c.027-.028.164-.151.41-.37.246-.219.397-.343.451-.37h.123c.028-.219.15-.534.37-.945.164-.082.437-.246.82-.493v-.246c.273-.137.67-.37 1.19-.698.026-.192.026-.48 0-.863l-.247-.082c-.137-.164-.328-.452-.574-.863a54.739 54.739 0 0 0-.123-.698c-.028-.028-.356-.589-.985-1.684-.273-.055-.67-.26-1.189-.616 0-.137-.055-.329-.164-.576-.082-.274-.465-.643-1.148-1.108l.328-.494c.11-.164.123-.355.04-.574-.163-.412-.45-.617-.86-.617h-.082zm12.672 6.983c.164.028.233.151.206.37l-.082.329c-.192-.028-.506-.11-.944-.247-.219-.054-.342-.109-.369-.164 0 .082.274.068.82-.041.22-.192.342-.274.37-.247z" fill="#fff"/></svg>