<svg width="26" height="28" fill="none" xmlns="http://www.w3.org/2000/svg"><path d="M19.017 27.904H7.5c-.162-1.055-.305-.79-.486-1.803a1.43 1.43 0 0 0-.336-.731c-1.103-1.16-1.479-2.481-1.591-3.913-.488-6.235-1-12.47-1.538-18.701-.068-.793.437-1.3 1.208-1.51C6.23.846 7.741.429 9.27.303c3.264-.27 6.549-.28 9.801.219.434.067.865.158 1.286.265 2.216.568 2.572 1.051 2.407 2.927-.47 5.44-.888 10.882-1.377 16.318-.12 1.335-.084 2.813-.79 3.947-1.037 1.664-1.663 2.021-1.573 3.93l-.006-.005zM10.42 13.58c.017-.847-.87-1.584-1.892-1.575-1.022.009-1.867.697-1.89 1.513-.021.855.838 1.56 1.902 1.563 1.019 0 1.864-.672 1.88-1.5zM8.125 9.258c1.023 0 1.884-.684 1.898-1.496.014-.811-.908-1.568-1.932-1.557-1.025.01-1.937.762-1.901 1.584.036.822.908 1.475 1.934 1.469zm10.321 0c1.025 0 1.867-.676 1.886-1.5.018-.823-.896-1.571-1.92-1.56-1 .012-1.87.714-1.885 1.52-.017.856.842 1.545 1.92 1.545v-.005zm1.437 4.257c-.02-.818-.888-1.514-1.885-1.513-.998.002-1.946.773-1.92 1.577.026.835.957 1.532 2 1.498 1.02-.033 1.827-.733 1.805-1.562zm-8.784 5.827c-.011-.83-.95-1.553-1.973-1.524-1.025.028-1.838.731-1.833 1.555.005.823.834 1.498 1.866 1.507 1.053.01 1.953-.705 1.945-1.538H11.1zm6.253-1.525c-.999 0-1.875.698-1.888 1.51-.014.86.84 1.557 1.907 1.556 1.01 0 1.874-.683 1.899-1.5.024-.817-.882-1.564-1.918-1.566zM3.912 17.36c.13 1.345.242 2.657.37 4.061-.544 0-1.007.016-1.467-.008-.15-.007-.39-.091-.422-.176-.26-.82-.967-1.57-.613-2.492.033-.116.058-.235.074-.355.3-1.254.342-1.276 2.058-1.03M3.362 9.704c-.11.063-.13.089-.156.087-.554-.013-1.474.13-1.595-.07-.428-.687-.604-1.483-.822-2.249-.054-.192.092-.422.141-.635.296-1.309.36-1.344 2.075-1.07l.362 3.937M3.834 15.624c-.55 0-.986.028-1.412-.012-.19-.018-.474-.146-.519-.272-.341-.902-.956-1.771-.485-2.779.153-.327.182-.694.272-1.063h1.766c.13 1.352.25 2.696.38 4.123M22.444 17.398c.059-.037.12-.069.186-.094 1.583-.154 1.501-.136 1.907 1.091.34 1.03-.17 1.887-.552 2.78-.058.129-.46.209-.718.24-.392.024-.785.027-1.178.009.122-1.383.238-2.712.355-4.026zM23.003 9.73l.36-4.057c.47 0 .932-.03 1.385.015.174.017.434.186.468.317.232.902.547 1.79.067 2.753-.59 1.19-.545 1.237-2.28.973zM22.532 15.625c.11-1.259.21-2.404.316-3.55a5.16 5.16 0 0 1 .118-.578h1.604c.745 1.297.618 2.57-.099 3.81-.096.166-.484.257-.757.306-.336.052-.693.012-1.181.012z" fill="#FFC200"/></svg>