<svg width="42" height="29" fill="none" xmlns="http://www.w3.org/2000/svg"><path d="M16.459 19.612C2.782 19.612 5.509.313 5.509.313S18.476.591 21.64 6.455c3.164 5.863 1.44 10.37 1.44 10.37s7.054 2.787-6.621 2.787z" fill="#fff"/><path d="M26.069 6.598c-2.976 2.768-4.24 6.864-8.306 8.99C10.74 19.26-.002 17.503-.002 17.503s8.19 14.83 24.078 9.265c1.756-.616 7.002-3.038 7.956-9.423.954-6.385 5.357-6.93 5.357-6.93S32.746.381 26.067 6.598h.002zM31.54 9.27a.924.924 0 0 1-.85-.564.907.907 0 0 1 .198-.996.92.92 0 0 1 1.57.647.908.908 0 0 1-.567.843.923.923 0 0 1-.351.07z" fill="#fff"/><path d="M40.808 15.517c-.449-.304-1.532-.603-2.005-.693a9.55 9.55 0 0 0-.715-2.389l-.933.452a9.254 9.254 0 0 1 .759 3.578c.005.451-.027.902-.095 1.348-.596.018-2.062.257-2.698.585-.794.404-1.264 1.07-1.05 1.486.216.416 1.038.425 1.828.02.54-.273 1.368-1.092 1.832-1.612-.41 1.91-1.516 3.572-3.308 4.959l.638.814a10.984 10.984 0 0 0 1.987-1.958c-.201.721-.448 2.218-.344 2.963.138 1.003.68 1.757 1.214 1.685.533-.072.852-.944.714-1.948-.122-.89-1.062-2.656-1.34-3.037a8.945 8.945 0 0 0 1.66-5.358c-.006-.363-.031-.726-.076-1.087.32.443.827 1.04 1.183 1.282.573.386 1.207.463 1.413.162.206-.301-.09-.86-.664-1.25" fill="#37B34A"/></svg>