<svg width="85" height="58" fill="none" xmlns="http://www.w3.org/2000/svg"><path d="M33.475 40.159C5.66 40.159 11.205.64 11.205.64s26.374.57 32.81 12.576c6.434 12.005 2.927 21.233 2.927 21.233s14.347 5.709-13.467 5.709z" fill="#fff"/><path d="M53.02 13.51c-6.052 5.668-8.623 14.055-16.892 18.408C21.846 39.438-.002 35.84-.002 35.84s16.657 30.367 48.97 18.97c3.574-1.26 14.242-6.22 16.183-19.294 1.941-13.074 10.895-14.19 10.895-14.19S66.603.78 53.018 13.509h.003zm11.13 5.47a1.87 1.87 0 1 1-.005-3.739 1.87 1.87 0 0 1 .005 3.74z" fill="#fff"/><path d="M83 31.773c-.913-.623-3.118-1.235-4.078-1.42-.27-1.687-.76-3.33-1.455-4.89l-1.897.925a19.058 19.058 0 0 1 1.543 7.326c.01.924-.054 1.846-.192 2.76-1.214.036-4.194.527-5.489 1.197-1.614.828-2.571 2.192-2.133 3.044.438.853 2.11.871 3.716.043 1.097-.562 2.782-2.237 3.726-3.303-.833 3.91-3.083 7.315-6.728 10.154l1.298 1.667a22.416 22.416 0 0 0 4.04-4.01c-.408 1.477-.91 4.543-.698 6.068.28 2.055 1.384 3.598 2.468 3.45 1.084-.148 1.733-1.934 1.453-3.989-.248-1.823-2.16-5.44-2.724-6.217a18.4 18.4 0 0 0 3.373-10.972 20.951 20.951 0 0 0-.153-2.227c.649.908 1.683 2.132 2.405 2.625 1.166.792 2.456.95 2.875.333.42-.618-.182-1.763-1.35-2.562" fill="#37B34A"/></svg>