<svg width="63" height="43" fill="none" xmlns="http://www.w3.org/2000/svg"><path d="M24.688 29.419C4.174 29.419 8.264.469 8.264.469s19.45.418 24.197 9.213c4.745 8.795 2.159 15.555 2.159 15.555s10.58 4.182-9.932 4.182z" fill="#fff"/><path d="M39.103 9.896c-4.464 4.153-6.36 10.297-12.458 13.485C16.11 28.892-.002 26.255-.002 26.255S12.283 48.5 36.113 40.152c2.636-.924 10.504-4.557 11.935-14.135 1.432-9.577 8.035-10.395 8.035-10.395S49.12.572 39.101 9.896h.002zm8.208 4.008a1.386 1.386 0 0 1-1.276-.845 1.36 1.36 0 0 1 .299-1.494 1.382 1.382 0 0 1 1.504-.296 1.377 1.377 0 0 1 .85 1.267 1.36 1.36 0 0 1-.403.968 1.377 1.377 0 0 1-.974.4z" fill="#fff"/><path d="M61.212 23.275c-.673-.456-2.299-.904-3.007-1.04-.2-1.235-.56-2.44-1.073-3.582l-1.399.678a13.881 13.881 0 0 1 1.138 5.367c.007.676-.04 1.352-.142 2.021-.895.027-3.093.386-4.048.877-1.19.607-1.896 1.606-1.573 2.23.323.625 1.556.638 2.74.031.81-.411 2.052-1.638 2.749-2.42-.615 2.865-2.274 5.36-4.962 7.44l.957 1.22a16.479 16.479 0 0 0 2.98-2.937c-.302 1.082-.671 3.328-.516 4.445.206 1.505 1.021 2.636 1.82 2.528.8-.109 1.279-1.417 1.073-2.922-.183-1.336-1.593-3.985-2.01-4.555a13.417 13.417 0 0 0 2.488-8.038 15.232 15.232 0 0 0-.113-1.63c.479.664 1.241 1.56 1.774 1.922.86.58 1.81.696 2.12.244.31-.453-.134-1.291-.996-1.877" fill="#37B34A"/></svg>