<svg width="51" height="58" fill="none" xmlns="http://www.w3.org/2000/svg"><path d="M37.627 57.137H14.205c-.33-2.16-.62-1.617-.989-3.693a2.937 2.937 0 0 0-.683-1.496c-2.242-2.374-3.007-5.08-3.236-8.011A4809.92 4809.92 0 0 0 6.169 5.643C6.032 4.02 7.058 2.98 8.627 2.55 11.62 1.73 14.693.878 17.802.62c6.639-.554 13.32-.573 19.934.448.883.138 1.759.325 2.616.544 4.507 1.163 5.23 2.152 4.895 5.993-.955 11.138-1.807 22.281-2.801 33.414-.245 2.733-.171 5.759-1.606 8.08-2.11 3.408-3.384 4.14-3.2 8.049l-.013-.01zm-17.483-29.33c.035-1.735-1.77-3.244-3.847-3.226-2.079.019-3.798 1.427-3.843 3.1-.045 1.749 1.704 3.194 3.866 3.2 2.073 0 3.793-1.377 3.824-3.073zm-4.67-8.85c2.08 0 3.832-1.4 3.86-3.063.03-1.662-1.845-3.21-3.929-3.19-2.083.022-3.94 1.563-3.866 3.245.074 1.684 1.846 3.021 3.935 3.008zm20.993 0c2.084 0 3.798-1.385 3.835-3.07.037-1.687-1.823-3.22-3.906-3.195-2.031.023-3.803 1.461-3.832 3.11-.035 1.754 1.711 3.165 3.903 3.165v-.01zm2.922 8.716c-.042-1.675-1.806-3.1-3.835-3.097-2.028.003-3.956 1.583-3.905 3.229.055 1.71 1.949 3.137 4.069 3.068 2.073-.069 3.716-1.501 3.671-3.2zM21.524 39.605c-.024-1.7-1.93-3.179-4.014-3.121-2.084.058-3.738 1.498-3.727 3.184.01 1.686 1.696 3.068 3.795 3.087 2.142.018 3.972-1.443 3.956-3.15h-.01zM34.24 36.48c-2.03 0-3.814 1.43-3.84 3.095-.029 1.76 1.71 3.187 3.88 3.184 2.054 0 3.81-1.398 3.86-3.07.05-1.673-1.793-3.203-3.9-3.209zM6.905 35.547c.264 2.755.493 5.44.754 8.316-1.108 0-2.05.031-2.985-.016-.304-.016-.792-.188-.858-.362-.527-1.68-1.967-3.215-1.247-5.102a5.15 5.15 0 0 0 .15-.728c.612-2.566.697-2.611 4.186-2.11M5.787 19.87c-.222.129-.264.182-.317.18-1.126-.027-2.999.263-3.244-.146-.87-1.406-1.229-3.036-1.672-4.603-.11-.393.187-.866.288-1.301.6-2.68.73-2.751 4.22-2.192.242 2.667.487 5.36.735 8.062M6.747 31.991c-1.119 0-2.005.059-2.873-.023-.385-.037-.962-.298-1.054-.557-.694-1.847-1.944-3.627-.987-5.69.311-.67.37-1.422.554-2.177h3.592c.264 2.768.506 5.52.773 8.442M44.598 35.624c.12-.075.246-.14.377-.193 3.22-.313 3.054-.277 3.88 2.235.69 2.11-.346 3.865-1.124 5.693-.116.264-.936.427-1.458.49-.799.049-1.599.055-2.398.019l.723-8.244zM45.734 19.925c.237-2.68.475-5.371.733-8.31.955 0 1.896-.06 2.817.032.353.034.883.38.952.649.472 1.846 1.113 3.664.137 5.637-1.203 2.435-1.11 2.533-4.639 1.992zM44.778 31.994c.224-2.577.425-4.922.641-7.268.058-.399.138-.794.24-1.184h3.262c1.517 2.656 1.258 5.26-.2 7.8-.195.34-.984.528-1.54.628-.683.106-1.409.024-2.403.024z" fill="#FFC200"/></svg>