<svg width="38" height="42" fill="none" xmlns="http://www.w3.org/2000/svg"><path d="M28.025 41.856H10.751c-.243-1.582-.457-1.184-.73-2.705a2.145 2.145 0 0 0-.503-1.096c-1.653-1.74-2.217-3.722-2.387-5.869A3500.57 3500.57 0 0 0 4.825 4.134c-.101-1.189.655-1.95 1.812-2.265C8.845 1.268 11.111.644 13.404.454 18.3.048 23.227.034 28.105.783c.652.1 1.297.237 1.93.398 3.324.852 3.857 1.577 3.61 4.39-.705 8.16-1.333 16.322-2.066 24.478-.181 2.002-.127 4.218-1.185 5.919-1.556 2.497-2.495 3.032-2.359 5.896l-.01-.008zM15.132 20.371c.025-1.272-1.306-2.377-2.838-2.364-1.533.014-2.801 1.046-2.834 2.27-.033 1.282 1.256 2.341 2.851 2.345 1.529 0 2.797-1.009 2.82-2.251zm-3.445-6.484c1.535 0 2.826-1.026 2.847-2.244.022-1.217-1.361-2.351-2.898-2.336-1.536.015-2.906 1.144-2.851 2.377.054 1.233 1.361 2.213 2.902 2.203zm15.482 0c1.537 0 2.801-1.014 2.828-2.25.028-1.234-1.343-2.357-2.88-2.34-1.498.018-2.805 1.071-2.826 2.279-.026 1.285 1.262 2.319 2.878 2.319v-.008zm2.156 6.385c-.032-1.227-1.333-2.27-2.828-2.269-1.496.002-2.918 1.16-2.881 2.366.04 1.252 1.437 2.297 3.001 2.247 1.529-.05 2.74-1.1 2.708-2.344zm-13.176 8.74c-.018-1.244-1.424-2.328-2.96-2.285-1.537.042-2.757 1.097-2.749 2.332.008 1.235 1.25 2.248 2.799 2.261 1.58.014 2.93-1.057 2.918-2.307h-.008zm9.379-2.287c-1.498 0-2.813 1.047-2.832 2.267-.022 1.289 1.26 2.334 2.861 2.332 1.515 0 2.81-1.024 2.848-2.25.037-1.225-1.323-2.345-2.877-2.35zM5.367 26.04c.195 2.018.364 3.986.557 6.092-.817 0-1.512.023-2.202-.012-.224-.011-.584-.137-.632-.264-.39-1.231-1.451-2.356-.92-3.738.05-.175.087-.353.11-.533.452-1.88.514-1.913 3.087-1.546M4.543 14.556c-.164.094-.195.133-.234.131-.83-.02-2.211.193-2.392-.106-.642-1.03-.907-2.224-1.233-3.372-.082-.288.138-.634.212-.953.443-1.964.538-2.016 3.112-1.606l.542 5.906M5.25 23.436c-.824 0-1.478.042-2.118-.018-.284-.027-.71-.218-.778-.407-.511-1.353-1.433-2.658-.727-4.169.23-.49.272-1.042.408-1.594h2.65c.194 2.027.373 4.043.57 6.184M33.166 26.097c.088-.056.181-.103.278-.141 2.375-.23 2.252-.203 2.861 1.637.51 1.546-.255 2.83-.828 4.17-.086.193-.69.313-1.076.36a16.79 16.79 0 0 1-1.768.013l.533-6.04zM34.004 14.596l.54-6.087c.705 0 1.399-.045 2.078.023.26.025.651.278.702.475.348 1.353.82 2.685.101 4.13-.887 1.784-.819 1.855-3.421 1.46zM33.299 23.438c.165-1.888.313-3.606.473-5.324.042-.293.101-.582.177-.868h2.406c1.118 1.946.927 3.853-.148 5.714-.144.25-.726.387-1.136.46-.504.077-1.039.018-1.772.018z" fill="#FFC200"/></svg>