<svg width="50" height="42" fill="none" xmlns="http://www.w3.org/2000/svg"><path d="M49.18 12.851v2.53a.813.813 0 0 0-.087.21 15.248 15.248 0 0 1-1.258 4.544c-1.46 3.347-3.664 6.184-6.172 8.812-4.668 4.887-10.055 8.89-15.82 12.407-.602.367-1.168.338-1.773-.025-4.954-2.99-9.604-6.377-13.81-10.347-2.637-2.485-5.037-5.173-6.893-8.3C1.996 20.363.981 17.915.811 15.209c-.227-3.602.687-6.92 2.856-9.838C5.902 2.365 8.872.47 12.665.114c4.489-.429 8.146 1.272 11.044 4.65.46.539.855 1.134 1.248 1.66.673-.825 1.27-1.703 2.011-2.435C30.721.286 35.165-.971 40.195.792c4.411 1.546 7.08 4.832 8.402 9.232.277.92.39 1.888.584 2.833" fill="#EC1C24"/></svg>