<svg width="33" height="28" fill="none" xmlns="http://www.w3.org/2000/svg"><path d="M32.786 8.567v1.687a.542.542 0 0 0-.057.14 10.166 10.166 0 0 1-.839 3.03c-.974 2.23-2.443 4.122-4.114 5.874-3.113 3.258-6.704 5.927-10.548 8.271-.4.245-.778.226-1.181-.017-3.303-1.993-6.403-4.251-9.207-6.897-1.758-1.657-3.358-3.45-4.595-5.534C1.33 13.575.654 11.943.54 10.14.389 7.738.999 5.526 2.444 3.58 3.934 1.577 5.914.314 8.443.076c2.993-.286 5.43.848 7.363 3.1.307.36.57.756.832 1.106.449-.55.847-1.135 1.341-1.623C20.48.191 23.443-.647 26.797.53c2.94 1.03 4.72 3.22 5.601 6.154.184.613.26 1.258.39 1.888" fill="#EC1C24"/></svg>